<svg width="37" height="38" viewBox="0 0 37 38" fill="none" xmlns="http://www.w3.org/2000/svg">
<g filter="url(#filter0_d_55_1610)">
<path d="M12.5 10.92H10.5V6.88C10.5 6.59 10.62 6.31 10.82 6.11L11.5 5.44L12.18 6.11C12.38 6.31 12.5 6.59 12.5 6.88V10.92Z" fill="url(#paint0_linear_55_1610)"/>
<path d="M12.5 10.92H10.5V6.88C10.5 6.59 10.62 6.31 10.82 6.11L11.5 5.44L12.18 6.11C12.38 6.31 12.5 6.59 12.5 6.88V10.92Z" fill="url(#paint1_radial_55_1610)"/>
<path d="M12.78 3.774L11.88 2.264C11.8399 2.19776 11.7834 2.14298 11.716 2.10496C11.6485 2.06694 11.5724 2.04697 11.495 2.04697C11.4176 2.04697 11.3415 2.06694 11.274 2.10496C11.2066 2.14298 11.1501 2.19776 11.11 2.264L10.22 3.774C10.05 4.054 9.97001 4.384 10.01 4.734C10.09 5.424 10.64 5.974 11.33 6.044C12.23 6.144 13 5.444 13 4.554C12.9898 4.28018 12.9144 4.01276 12.78 3.774Z" fill="url(#paint2_radial_55_1610)"/>
<path d="M12.11 3.96399L11.5 3.18399L10.89 3.96399C10.7935 4.06399 10.7231 4.18614 10.6848 4.31973C10.6466 4.45331 10.6417 4.59424 10.6706 4.73015C10.6995 4.86606 10.7613 4.9928 10.8507 5.09923C10.94 5.20567 11.0541 5.28856 11.1829 5.34062C11.3117 5.39268 11.4514 5.41233 11.5896 5.39783C11.7278 5.38334 11.8603 5.33514 11.9755 5.25748C12.0907 5.17982 12.1851 5.07506 12.2504 4.95241C12.3157 4.82975 12.3499 4.69294 12.35 4.55399C12.35 4.32399 12.26 4.12399 12.11 3.96399Z" fill="url(#paint3_radial_55_1610)"/>
<path d="M19 10.92H17V6.88C17 6.59 17.12 6.31 17.32 6.11L18 5.44L18.68 6.11C18.88 6.31 19 6.59 19 6.88V10.92Z" fill="url(#paint4_linear_55_1610)"/>
<path d="M19 10.92H17V6.88C17 6.59 17.12 6.31 17.32 6.11L18 5.44L18.68 6.11C18.88 6.31 19 6.59 19 6.88V10.92Z" fill="url(#paint5_radial_55_1610)"/>
<path d="M19.28 3.774L18.39 2.264C18.3499 2.19776 18.2934 2.14298 18.226 2.10496C18.1585 2.06694 18.0824 2.04697 18.005 2.04697C17.9276 2.04697 17.8515 2.06694 17.784 2.10496C17.7166 2.14298 17.6601 2.19776 17.62 2.264L16.73 3.774C16.56 4.044 16.48 4.384 16.52 4.734C16.6 5.414 17.15 5.964 17.84 6.044C18.74 6.144 19.51 5.444 19.51 4.554C19.5 4.274 19.42 4.004 19.28 3.774Z" fill="url(#paint6_radial_55_1610)"/>
<path d="M18.61 3.98999L18 3.20999L17.39 3.99999C17.293 4.09998 17.222 4.22228 17.1834 4.35614C17.1447 4.49 17.1396 4.6313 17.1683 4.76762C17.1971 4.90394 17.259 5.03109 17.3485 5.13787C17.438 5.24466 17.5523 5.32782 17.6815 5.38002C17.8107 5.43222 17.9507 5.45187 18.0893 5.43723C18.2278 5.4226 18.3607 5.37413 18.4761 5.29609C18.5915 5.21805 18.686 5.11284 18.7512 4.98971C18.8164 4.86658 18.8503 4.72932 18.85 4.58999C18.85 4.34999 18.76 4.14999 18.61 3.98999Z" fill="url(#paint7_radial_55_1610)"/>
<path d="M25.5 11H23.5V6.95999C23.5 6.66999 23.62 6.38999 23.82 6.18999L24.5 5.51999L25.18 6.18999C25.39 6.38999 25.5 6.66999 25.5 6.95999V11Z" fill="url(#paint8_linear_55_1610)"/>
<path d="M25.5 11H23.5V6.95999C23.5 6.66999 23.62 6.38999 23.82 6.18999L24.5 5.51999L25.18 6.18999C25.39 6.38999 25.5 6.66999 25.5 6.95999V11Z" fill="url(#paint9_radial_55_1610)"/>
<path d="M25.78 3.774L24.89 2.264C24.8499 2.19776 24.7934 2.14298 24.726 2.10496C24.6585 2.06694 24.5824 2.04697 24.505 2.04697C24.4276 2.04697 24.3515 2.06694 24.284 2.10496C24.2166 2.14298 24.1601 2.19776 24.12 2.264L23.23 3.774C23.06 4.044 22.98 4.384 23.02 4.734C23.1 5.424 23.65 5.974 24.33 6.044C25.24 6.144 26 5.444 26 4.554C26 4.274 25.92 4.004 25.78 3.774Z" fill="url(#paint10_radial_55_1610)"/>
<path d="M25.11 3.96399L24.5 3.18399L23.89 3.97399C23.793 4.07398 23.722 4.19628 23.6834 4.33014C23.6447 4.464 23.6396 4.6053 23.6683 4.74162C23.6971 4.87794 23.759 5.00508 23.8485 5.11187C23.938 5.21866 24.0523 5.30182 24.1815 5.35402C24.3107 5.40622 24.4507 5.42587 24.5893 5.41123C24.7278 5.3966 24.8607 5.34813 24.9761 5.27009C25.0915 5.19205 25.186 5.08684 25.2512 4.96371C25.3164 4.84058 25.3503 4.70332 25.35 4.56399C25.35 4.32399 25.26 4.12399 25.11 3.96399Z" fill="url(#paint11_radial_55_1610)"/>
<path d="M28.984 29.998H6.922C5.656 29.998 5 29.312 5 28.03V14.998H31V28.03C31 29.28 30.437 29.998 28.984 29.998Z" fill="url(#paint12_linear_55_1610)"/>
<path d="M28.984 29.998H6.922C5.656 29.998 5 29.312 5 28.03V14.998H31V28.03C31 29.28 30.437 29.998 28.984 29.998Z" fill="url(#paint13_radial_55_1610)"/>
<path d="M28.984 29.998H6.922C5.656 29.998 5 29.312 5 28.03V14.998H31V28.03C31 29.28 30.437 29.998 28.984 29.998Z" fill="url(#paint14_linear_55_1610)"/>
<path d="M31 21.985H5V23.985H31V21.985Z" fill="url(#paint15_linear_55_1610)"/>
<g filter="url(#filter1_f_55_1610)">
<path d="M5.729 19.082C6.431 19.082 6.767 18.83 7.239 18.43C7.589 18.133 8.075 17.689 8.467 18C9.91 19.13 12.122 19.56 13.566 18.43C14.114 18 14.21 17.904 14.736 18.316C15.46 18.883 16.463 19.256 17.333 19.254C18.912 19.254 19.606 18.871 20.325 18.308C20.84 17.905 21.129 17.907 21.642 18.308C23.191 19.521 25.447 19.26 26.635 18.316C27.385 17.72 28.603 19.031 29.435 19.031C30.011 19.031 30.866 18.879 30.866 17.795C25.151 13.051 10.246 13.467 5.418 17.375C4.666 17.984 5.027 19.082 5.729 19.082Z" fill="url(#paint16_linear_55_1610)"/>
</g>
<path d="M4 12.297V17.557C4 18.523 5.016 18.836 5.56 18.836C6.266 18.836 6.595 18.478 7.07 18.078C7.422 17.781 8.263 17.766 8.656 18.078C9.36041 18.627 10.2279 18.9251 11.121 18.9251C12.0141 18.9251 12.8816 18.627 13.586 18.078C14.137 17.648 15.012 17.666 15.54 18.078C16.268 18.645 17.142 19.026 18.016 19.023C18.882 19.021 19.748 18.64 20.47 18.078C20.988 17.674 21.876 17.668 22.39 18.07C23.947 19.283 26.166 19.022 27.36 18.078C28.112 17.482 29.469 18.844 30.305 18.844C30.883 18.844 32.01 18.641 32.01 17.558V12.297C32.01 9.56199 30.062 9.01599 28 9.01599H8.39C5.22 9.01599 4 10.125 4 12.296V12.297Z" fill="#EDC8AE"/>
<path d="M4 12.297V17.557C4 18.523 5.016 18.836 5.56 18.836C6.266 18.836 6.595 18.478 7.07 18.078C7.422 17.781 8.263 17.766 8.656 18.078C9.36041 18.627 10.2279 18.9251 11.121 18.9251C12.0141 18.9251 12.8816 18.627 13.586 18.078C14.137 17.648 15.012 17.666 15.54 18.078C16.268 18.645 17.142 19.026 18.016 19.023C18.882 19.021 19.748 18.64 20.47 18.078C20.988 17.674 21.876 17.668 22.39 18.07C23.947 19.283 26.166 19.022 27.36 18.078C28.112 17.482 29.469 18.844 30.305 18.844C30.883 18.844 32.01 18.641 32.01 17.558V12.297C32.01 9.56199 30.062 9.01599 28 9.01599H8.39C5.22 9.01599 4 10.125 4 12.296V12.297Z" fill="url(#paint17_radial_55_1610)"/>
<path d="M4 12.297V17.557C4 18.523 5.016 18.836 5.56 18.836C6.266 18.836 6.595 18.478 7.07 18.078C7.422 17.781 8.263 17.766 8.656 18.078C9.36041 18.627 10.2279 18.9251 11.121 18.9251C12.0141 18.9251 12.8816 18.627 13.586 18.078C14.137 17.648 15.012 17.666 15.54 18.078C16.268 18.645 17.142 19.026 18.016 19.023C18.882 19.021 19.748 18.64 20.47 18.078C20.988 17.674 21.876 17.668 22.39 18.07C23.947 19.283 26.166 19.022 27.36 18.078C28.112 17.482 29.469 18.844 30.305 18.844C30.883 18.844 32.01 18.641 32.01 17.558V12.297C32.01 9.56199 30.062 9.01599 28 9.01599H8.39C5.22 9.01599 4 10.125 4 12.296V12.297Z" fill="url(#paint18_radial_55_1610)"/>
<path d="M4 12.297V17.557C4 18.523 5.016 18.836 5.56 18.836C6.266 18.836 6.595 18.478 7.07 18.078C7.422 17.781 8.263 17.766 8.656 18.078C9.36041 18.627 10.2279 18.9251 11.121 18.9251C12.0141 18.9251 12.8816 18.627 13.586 18.078C14.137 17.648 15.012 17.666 15.54 18.078C16.268 18.645 17.142 19.026 18.016 19.023C18.882 19.021 19.748 18.64 20.47 18.078C20.988 17.674 21.876 17.668 22.39 18.07C23.947 19.283 26.166 19.022 27.36 18.078C28.112 17.482 29.469 18.844 30.305 18.844C30.883 18.844 32.01 18.641 32.01 17.558V12.297C32.01 9.56199 30.062 9.01599 28 9.01599H8.39C5.22 9.01599 4 10.125 4 12.296V12.297Z" fill="url(#paint19_linear_55_1610)"/>
<path d="M4 12.297V17.557C4 18.523 5.016 18.836 5.56 18.836C6.266 18.836 6.595 18.478 7.07 18.078C7.422 17.781 8.263 17.766 8.656 18.078C9.36041 18.627 10.2279 18.9251 11.121 18.9251C12.0141 18.9251 12.8816 18.627 13.586 18.078C14.137 17.648 15.012 17.666 15.54 18.078C16.268 18.645 17.142 19.026 18.016 19.023C18.882 19.021 19.748 18.64 20.47 18.078C20.988 17.674 21.876 17.668 22.39 18.07C23.947 19.283 26.166 19.022 27.36 18.078C28.112 17.482 29.469 18.844 30.305 18.844C30.883 18.844 32.01 18.641 32.01 17.558V12.297C32.01 9.56199 30.062 9.01599 28 9.01599H8.39C5.22 9.01599 4 10.125 4 12.296V12.297Z" fill="url(#paint20_linear_55_1610)"/>
<path d="M4 12.297V17.557C4 18.523 5.016 18.836 5.56 18.836C6.266 18.836 6.595 18.478 7.07 18.078C7.422 17.781 8.263 17.766 8.656 18.078C9.36041 18.627 10.2279 18.9251 11.121 18.9251C12.0141 18.9251 12.8816 18.627 13.586 18.078C14.137 17.648 15.012 17.666 15.54 18.078C16.268 18.645 17.142 19.026 18.016 19.023C18.882 19.021 19.748 18.64 20.47 18.078C20.988 17.674 21.876 17.668 22.39 18.07C23.947 19.283 26.166 19.022 27.36 18.078C28.112 17.482 29.469 18.844 30.305 18.844C30.883 18.844 32.01 18.641 32.01 17.558V12.297C32.01 9.56199 30.062 9.01599 28 9.01599H8.39C5.22 9.01599 4 10.125 4 12.296V12.297Z" fill="url(#paint21_linear_55_1610)"/>
<path d="M4 12.297V17.557C4 18.523 5.016 18.836 5.56 18.836C6.266 18.836 6.595 18.478 7.07 18.078C7.422 17.781 8.263 17.766 8.656 18.078C9.36041 18.627 10.2279 18.9251 11.121 18.9251C12.0141 18.9251 12.8816 18.627 13.586 18.078C14.137 17.648 15.012 17.666 15.54 18.078C16.268 18.645 17.142 19.026 18.016 19.023C18.882 19.021 19.748 18.64 20.47 18.078C20.988 17.674 21.876 17.668 22.39 18.07C23.947 19.283 26.166 19.022 27.36 18.078C28.112 17.482 29.469 18.844 30.305 18.844C30.883 18.844 32.01 18.641 32.01 17.558V12.297C32.01 9.56199 30.062 9.01599 28 9.01599H8.39C5.22 9.01599 4 10.125 4 12.296V12.297Z" fill="url(#paint22_radial_55_1610)"/>
<path d="M4 12.297V17.557C4 18.523 5.016 18.836 5.56 18.836C6.266 18.836 6.595 18.478 7.07 18.078C7.422 17.781 8.263 17.766 8.656 18.078C9.36041 18.627 10.2279 18.9251 11.121 18.9251C12.0141 18.9251 12.8816 18.627 13.586 18.078C14.137 17.648 15.012 17.666 15.54 18.078C16.268 18.645 17.142 19.026 18.016 19.023C18.882 19.021 19.748 18.64 20.47 18.078C20.988 17.674 21.876 17.668 22.39 18.07C23.947 19.283 26.166 19.022 27.36 18.078C28.112 17.482 29.469 18.844 30.305 18.844C30.883 18.844 32.01 18.641 32.01 17.558V12.297C32.01 9.56199 30.062 9.01599 28 9.01599H8.39C5.22 9.01599 4 10.125 4 12.296V12.297Z" fill="url(#paint23_radial_55_1610)"/>
<path d="M4 12.297V17.557C4 18.523 5.016 18.836 5.56 18.836C6.266 18.836 6.595 18.478 7.07 18.078C7.422 17.781 8.263 17.766 8.656 18.078C9.36041 18.627 10.2279 18.9251 11.121 18.9251C12.0141 18.9251 12.8816 18.627 13.586 18.078C14.137 17.648 15.012 17.666 15.54 18.078C16.268 18.645 17.142 19.026 18.016 19.023C18.882 19.021 19.748 18.64 20.47 18.078C20.988 17.674 21.876 17.668 22.39 18.07C23.947 19.283 26.166 19.022 27.36 18.078C28.112 17.482 29.469 18.844 30.305 18.844C30.883 18.844 32.01 18.641 32.01 17.558V12.297C32.01 9.56199 30.062 9.01599 28 9.01599H8.39C5.22 9.01599 4 10.125 4 12.296V12.297Z" fill="url(#paint24_linear_55_1610)"/>
<g filter="url(#filter2_f_55_1610)">
<path d="M4.40601 17.262C4.40601 18.139 5.06701 18.423 5.59401 18.423C6.27601 18.423 6.54001 17.958 7.00001 17.593C7.34001 17.325 8.44801 17.592 8.82801 17.875C9.46001 18.338 10.289 18.735 11.047 18.781C11.97 18.837 13.12 18.158 13.891 17.594C14.423 17.204 15.058 17.22 15.569 17.594C16.273 18.109 17.124 18.893 17.969 18.891C18.807 18.889 19.942 18.246 20.641 17.734C21.141 17.368 22.174 17.363 22.671 17.728C24.177 18.83 26.19 18.78 27.344 17.922C28.568 17.012 29.816 18.516 30.625 18.516C31.185 18.516 31.765 18.5 31.765 17.516V16.75C31.391 15.763 4.40601 15.594 4.40601 17.262Z" fill="#EDC8AE"/>
<path d="M4.40601 17.262C4.40601 18.139 5.06701 18.423 5.59401 18.423C6.27601 18.423 6.54001 17.958 7.00001 17.593C7.34001 17.325 8.44801 17.592 8.82801 17.875C9.46001 18.338 10.289 18.735 11.047 18.781C11.97 18.837 13.12 18.158 13.891 17.594C14.423 17.204 15.058 17.22 15.569 17.594C16.273 18.109 17.124 18.893 17.969 18.891C18.807 18.889 19.942 18.246 20.641 17.734C21.141 17.368 22.174 17.363 22.671 17.728C24.177 18.83 26.19 18.78 27.344 17.922C28.568 17.012 29.816 18.516 30.625 18.516C31.185 18.516 31.765 18.5 31.765 17.516V16.75C31.391 15.763 4.40601 15.594 4.40601 17.262Z" fill="url(#paint25_radial_55_1610)"/>
<path d="M4.40601 17.262C4.40601 18.139 5.06701 18.423 5.59401 18.423C6.27601 18.423 6.54001 17.958 7.00001 17.593C7.34001 17.325 8.44801 17.592 8.82801 17.875C9.46001 18.338 10.289 18.735 11.047 18.781C11.97 18.837 13.12 18.158 13.891 17.594C14.423 17.204 15.058 17.22 15.569 17.594C16.273 18.109 17.124 18.893 17.969 18.891C18.807 18.889 19.942 18.246 20.641 17.734C21.141 17.368 22.174 17.363 22.671 17.728C24.177 18.83 26.19 18.78 27.344 17.922C28.568 17.012 29.816 18.516 30.625 18.516C31.185 18.516 31.765 18.5 31.765 17.516V16.75C31.391 15.763 4.40601 15.594 4.40601 17.262Z" fill="url(#paint26_radial_55_1610)"/>
<path d="M4.40601 17.262C4.40601 18.139 5.06701 18.423 5.59401 18.423C6.27601 18.423 6.54001 17.958 7.00001 17.593C7.34001 17.325 8.44801 17.592 8.82801 17.875C9.46001 18.338 10.289 18.735 11.047 18.781C11.97 18.837 13.12 18.158 13.891 17.594C14.423 17.204 15.058 17.22 15.569 17.594C16.273 18.109 17.124 18.893 17.969 18.891C18.807 18.889 19.942 18.246 20.641 17.734C21.141 17.368 22.174 17.363 22.671 17.728C24.177 18.83 26.19 18.78 27.344 17.922C28.568 17.012 29.816 18.516 30.625 18.516C31.185 18.516 31.765 18.5 31.765 17.516V16.75C31.391 15.763 4.40601 15.594 4.40601 17.262Z" fill="url(#paint27_linear_55_1610)"/>
<path d="M4.40601 17.262C4.40601 18.139 5.06701 18.423 5.59401 18.423C6.27601 18.423 6.54001 17.958 7.00001 17.593C7.34001 17.325 8.44801 17.592 8.82801 17.875C9.46001 18.338 10.289 18.735 11.047 18.781C11.97 18.837 13.12 18.158 13.891 17.594C14.423 17.204 15.058 17.22 15.569 17.594C16.273 18.109 17.124 18.893 17.969 18.891C18.807 18.889 19.942 18.246 20.641 17.734C21.141 17.368 22.174 17.363 22.671 17.728C24.177 18.83 26.19 18.78 27.344 17.922C28.568 17.012 29.816 18.516 30.625 18.516C31.185 18.516 31.765 18.5 31.765 17.516V16.75C31.391 15.763 4.40601 15.594 4.40601 17.262Z" fill="url(#paint28_linear_55_1610)"/>
<path d="M4.40601 17.262C4.40601 18.139 5.06701 18.423 5.59401 18.423C6.27601 18.423 6.54001 17.958 7.00001 17.593C7.34001 17.325 8.44801 17.592 8.82801 17.875C9.46001 18.338 10.289 18.735 11.047 18.781C11.97 18.837 13.12 18.158 13.891 17.594C14.423 17.204 15.058 17.22 15.569 17.594C16.273 18.109 17.124 18.893 17.969 18.891C18.807 18.889 19.942 18.246 20.641 17.734C21.141 17.368 22.174 17.363 22.671 17.728C24.177 18.83 26.19 18.78 27.344 17.922C28.568 17.012 29.816 18.516 30.625 18.516C31.185 18.516 31.765 18.5 31.765 17.516V16.75C31.391 15.763 4.40601 15.594 4.40601 17.262Z" fill="url(#paint29_linear_55_1610)"/>
<path d="M4.40601 17.262C4.40601 18.139 5.06701 18.423 5.59401 18.423C6.27601 18.423 6.54001 17.958 7.00001 17.593C7.34001 17.325 8.44801 17.592 8.82801 17.875C9.46001 18.338 10.289 18.735 11.047 18.781C11.97 18.837 13.12 18.158 13.891 17.594C14.423 17.204 15.058 17.22 15.569 17.594C16.273 18.109 17.124 18.893 17.969 18.891C18.807 18.889 19.942 18.246 20.641 17.734C21.141 17.368 22.174 17.363 22.671 17.728C24.177 18.83 26.19 18.78 27.344 17.922C28.568 17.012 29.816 18.516 30.625 18.516C31.185 18.516 31.765 18.5 31.765 17.516V16.75C31.391 15.763 4.40601 15.594 4.40601 17.262Z" fill="url(#paint30_radial_55_1610)"/>
<path d="M4.40601 17.262C4.40601 18.139 5.06701 18.423 5.59401 18.423C6.27601 18.423 6.54001 17.958 7.00001 17.593C7.34001 17.325 8.44801 17.592 8.82801 17.875C9.46001 18.338 10.289 18.735 11.047 18.781C11.97 18.837 13.12 18.158 13.891 17.594C14.423 17.204 15.058 17.22 15.569 17.594C16.273 18.109 17.124 18.893 17.969 18.891C18.807 18.889 19.942 18.246 20.641 17.734C21.141 17.368 22.174 17.363 22.671 17.728C24.177 18.83 26.19 18.78 27.344 17.922C28.568 17.012 29.816 18.516 30.625 18.516C31.185 18.516 31.765 18.5 31.765 17.516V16.75C31.391 15.763 4.40601 15.594 4.40601 17.262Z" fill="url(#paint31_radial_55_1610)"/>
</g>
<g filter="url(#filter3_f_55_1610)">
<path d="M23.308 15.94C23.108 16.14 22.798 16.14 22.598 15.94L21.858 15.2C21.658 15 21.658 14.69 21.858 14.49C22.058 14.29 22.368 14.29 22.568 14.49L23.308 15.23C23.508 15.43 23.508 15.75 23.308 15.94Z" fill="url(#paint32_linear_55_1610)"/>
<path d="M23.308 15.94C23.108 16.14 22.798 16.14 22.598 15.94L21.858 15.2C21.658 15 21.658 14.69 21.858 14.49C22.058 14.29 22.368 14.29 22.568 14.49L23.308 15.23C23.508 15.43 23.508 15.75 23.308 15.94Z" fill="#E6A9AF"/>
</g>
<path d="M23.456 15.857C23.256 16.057 22.946 16.057 22.746 15.857L22.006 15.117C21.806 14.917 21.806 14.607 22.006 14.407C22.206 14.207 22.516 14.207 22.716 14.407L23.456 15.147C23.656 15.347 23.656 15.667 23.456 15.857Z" fill="url(#paint33_linear_55_1610)"/>
<path d="M23.456 15.857C23.256 16.057 22.946 16.057 22.746 15.857L22.006 15.117C21.806 14.917 21.806 14.607 22.006 14.407C22.206 14.207 22.516 14.207 22.716 14.407L23.456 15.147C23.656 15.347 23.656 15.667 23.456 15.857Z" fill="url(#paint34_radial_55_1610)"/>
<g filter="url(#filter4_f_55_1610)">
<path d="M13.744 14.6C13.544 14.4 13.234 14.4 13.034 14.6L12.294 15.34C12.094 15.54 12.094 15.85 12.294 16.05C12.494 16.25 12.804 16.25 13.004 16.05L13.744 15.31C13.934 15.11 13.934 14.8 13.744 14.6Z" fill="url(#paint35_linear_55_1610)"/>
<path d="M13.744 14.6C13.544 14.4 13.234 14.4 13.034 14.6L12.294 15.34C12.094 15.54 12.094 15.85 12.294 16.05C12.494 16.25 12.804 16.25 13.004 16.05L13.744 15.31C13.934 15.11 13.934 14.8 13.744 14.6Z" fill="url(#paint36_radial_55_1610)"/>
<path d="M13.744 14.6C13.544 14.4 13.234 14.4 13.034 14.6L12.294 15.34C12.094 15.54 12.094 15.85 12.294 16.05C12.494 16.25 12.804 16.25 13.004 16.05L13.744 15.31C13.934 15.11 13.934 14.8 13.744 14.6Z" fill="#CCA39A"/>
</g>
<path d="M13.994 14.4C13.794 14.2 13.484 14.2 13.284 14.4L12.544 15.14C12.344 15.34 12.344 15.65 12.544 15.85C12.744 16.05 13.054 16.05 13.254 15.85L13.994 15.11C14.184 14.91 14.184 14.6 13.994 14.4Z" fill="url(#paint37_linear_55_1610)"/>
<path d="M13.994 14.4C13.794 14.2 13.484 14.2 13.284 14.4L12.544 15.14C12.344 15.34 12.344 15.65 12.544 15.85C12.744 16.05 13.054 16.05 13.254 15.85L13.994 15.11C14.184 14.91 14.184 14.6 13.994 14.4Z" fill="url(#paint38_radial_55_1610)"/>
<path d="M13.994 14.4C13.794 14.2 13.484 14.2 13.284 14.4L12.544 15.14C12.344 15.34 12.344 15.65 12.544 15.85C12.744 16.05 13.054 16.05 13.254 15.85L13.994 15.11C14.184 14.91 14.184 14.6 13.994 14.4Z" fill="url(#paint39_radial_55_1610)"/>
<g filter="url(#filter5_f_55_1610)">
<path d="M9.353 12.956C9.29956 12.9951 9.23882 13.023 9.17439 13.0382C9.10995 13.0534 9.04312 13.0555 8.97785 13.0444C8.91258 13.0333 8.8502 13.0093 8.79441 12.9736C8.73861 12.938 8.69052 12.8915 8.653 12.837L8.048 11.983C8.00897 11.9295 7.98107 11.8687 7.96596 11.8042C7.95085 11.7398 7.94882 11.6729 7.96001 11.6076C7.9712 11.5424 7.99538 11.48 8.0311 11.4242C8.06683 11.3685 8.11338 11.3204 8.168 11.283C8.2215 11.244 8.28229 11.2161 8.34677 11.201C8.41124 11.1858 8.4781 11.1838 8.54337 11.195C8.60864 11.2062 8.671 11.2304 8.72677 11.2661C8.78253 11.3018 8.83055 11.3484 8.868 11.403L9.473 12.256C9.54691 12.3657 9.57569 12.4997 9.55334 12.6301C9.53099 12.7604 9.45923 12.8772 9.353 12.956Z" fill="url(#paint40_linear_55_1610)"/>
<path d="M9.353 12.956C9.29956 12.9951 9.23882 13.023 9.17439 13.0382C9.10995 13.0534 9.04312 13.0555 8.97785 13.0444C8.91258 13.0333 8.8502 13.0093 8.79441 12.9736C8.73861 12.938 8.69052 12.8915 8.653 12.837L8.048 11.983C8.00897 11.9295 7.98107 11.8687 7.96596 11.8042C7.95085 11.7398 7.94882 11.6729 7.96001 11.6076C7.9712 11.5424 7.99538 11.48 8.0311 11.4242C8.06683 11.3685 8.11338 11.3204 8.168 11.283C8.2215 11.244 8.28229 11.2161 8.34677 11.201C8.41124 11.1858 8.4781 11.1838 8.54337 11.195C8.60864 11.2062 8.671 11.2304 8.72677 11.2661C8.78253 11.3018 8.83055 11.3484 8.868 11.403L9.473 12.256C9.54691 12.3657 9.57569 12.4997 9.55334 12.6301C9.53099 12.7604 9.45923 12.8772 9.353 12.956Z" fill="#CEA691"/>
</g>
<path d="M9.64701 12.835C9.5935 12.874 9.53272 12.9019 9.46824 12.917C9.40376 12.9321 9.33691 12.9342 9.27164 12.923C9.20636 12.9118 9.144 12.8876 9.08824 12.8519C9.03248 12.8162 8.98445 12.7696 8.94701 12.715L8.34201 11.862C8.30298 11.8085 8.27508 11.7477 8.25996 11.6832C8.24485 11.6188 8.24283 11.5519 8.25402 11.4866C8.26521 11.4214 8.28938 11.359 8.32511 11.3032C8.36083 11.2475 8.40738 11.1994 8.46201 11.162C8.51545 11.1229 8.57618 11.095 8.64062 11.0798C8.70506 11.0646 8.77189 11.0625 8.83715 11.0736C8.90242 11.0847 8.9648 11.1087 9.0206 11.1444C9.0764 11.18 9.12448 11.2265 9.16201 11.281L9.76601 12.135C9.84027 12.2445 9.86935 12.3785 9.84718 12.5089C9.825 12.6394 9.75329 12.7562 9.64701 12.835Z" fill="url(#paint41_linear_55_1610)"/>
<path d="M9.64701 12.835C9.5935 12.874 9.53272 12.9019 9.46824 12.917C9.40376 12.9321 9.33691 12.9342 9.27164 12.923C9.20636 12.9118 9.144 12.8876 9.08824 12.8519C9.03248 12.8162 8.98445 12.7696 8.94701 12.715L8.34201 11.862C8.30298 11.8085 8.27508 11.7477 8.25996 11.6832C8.24485 11.6188 8.24283 11.5519 8.25402 11.4866C8.26521 11.4214 8.28938 11.359 8.32511 11.3032C8.36083 11.2475 8.40738 11.1994 8.46201 11.162C8.51545 11.1229 8.57618 11.095 8.64062 11.0798C8.70506 11.0646 8.77189 11.0625 8.83715 11.0736C8.90242 11.0847 8.9648 11.1087 9.0206 11.1444C9.0764 11.18 9.12448 11.2265 9.16201 11.281L9.76601 12.135C9.84027 12.2445 9.86935 12.3785 9.84718 12.5089C9.825 12.6394 9.75329 12.7562 9.64701 12.835Z" fill="url(#paint42_radial_55_1610)"/>
<g filter="url(#filter6_f_55_1610)">
<path d="M27.428 11.313C27.3752 11.273 27.315 11.244 27.2508 11.2277C27.1866 11.2114 27.1198 11.2081 27.0544 11.2181C26.9889 11.2281 26.9261 11.2511 26.8697 11.2858C26.8133 11.3205 26.7644 11.3661 26.726 11.42L26.106 12.263C26.066 12.3158 26.037 12.376 26.0207 12.4402C26.0044 12.5044 26.0011 12.5712 26.0111 12.6366C26.0211 12.7021 26.0441 12.7649 26.0788 12.8213C26.1135 12.8777 26.1591 12.9265 26.213 12.965C26.2658 13.005 26.326 13.034 26.3902 13.0503C26.4544 13.0666 26.5212 13.0698 26.5866 13.0599C26.6521 13.0499 26.7149 13.0269 26.7713 12.9922C26.8277 12.9575 26.8765 12.9119 26.915 12.858L27.535 12.015C27.575 11.9622 27.604 11.902 27.6203 11.8378C27.6366 11.7736 27.6398 11.7068 27.6299 11.6414C27.6199 11.5759 27.5969 11.5131 27.5622 11.4567C27.5275 11.4003 27.4819 11.3514 27.428 11.313Z" fill="url(#paint43_linear_55_1610)"/>
<path d="M27.428 11.313C27.3752 11.273 27.315 11.244 27.2508 11.2277C27.1866 11.2114 27.1198 11.2081 27.0544 11.2181C26.9889 11.2281 26.9261 11.2511 26.8697 11.2858C26.8133 11.3205 26.7644 11.3661 26.726 11.42L26.106 12.263C26.066 12.3158 26.037 12.376 26.0207 12.4402C26.0044 12.5044 26.0011 12.5712 26.0111 12.6366C26.0211 12.7021 26.0441 12.7649 26.0788 12.8213C26.1135 12.8777 26.1591 12.9265 26.213 12.965C26.2658 13.005 26.326 13.034 26.3902 13.0503C26.4544 13.0666 26.5212 13.0698 26.5866 13.0599C26.6521 13.0499 26.7149 13.0269 26.7713 12.9922C26.8277 12.9575 26.8765 12.9119 26.915 12.858L27.535 12.015C27.575 11.9622 27.604 11.902 27.6203 11.8378C27.6366 11.7736 27.6398 11.7068 27.6299 11.6414C27.6199 11.5759 27.5969 11.5131 27.5622 11.4567C27.5275 11.4003 27.4819 11.3514 27.428 11.313Z" fill="#F8CCAD"/>
</g>
<path d="M27.543 11.172C27.4903 11.1319 27.4301 11.1029 27.366 11.0865C27.3018 11.0701 27.2351 11.0668 27.1696 11.0767C27.1041 11.0865 27.0413 11.1094 26.9849 11.144C26.9285 11.1786 26.8795 11.2242 26.841 11.278L26.221 12.121C26.1809 12.1737 26.1519 12.2339 26.1355 12.298C26.1191 12.3622 26.1158 12.4289 26.1257 12.4944C26.1355 12.5598 26.1585 12.6226 26.193 12.6791C26.2276 12.7355 26.2732 12.7845 26.327 12.823C26.3798 12.863 26.44 12.892 26.5042 12.9083C26.5684 12.9246 26.6352 12.9278 26.7006 12.9179C26.7661 12.9079 26.8289 12.8849 26.8853 12.8502C26.9417 12.8155 26.9905 12.7699 27.029 12.716L27.649 11.874C27.689 11.8213 27.7181 11.7611 27.7345 11.6969C27.7509 11.6328 27.7542 11.566 27.7443 11.5006C27.7344 11.4351 27.7115 11.3723 27.677 11.3159C27.6424 11.2594 27.5968 11.2105 27.543 11.172Z" fill="url(#paint44_linear_55_1610)"/>
<path d="M27.543 11.172C27.4903 11.1319 27.4301 11.1029 27.366 11.0865C27.3018 11.0701 27.2351 11.0668 27.1696 11.0767C27.1041 11.0865 27.0413 11.1094 26.9849 11.144C26.9285 11.1786 26.8795 11.2242 26.841 11.278L26.221 12.121C26.1809 12.1737 26.1519 12.2339 26.1355 12.298C26.1191 12.3622 26.1158 12.4289 26.1257 12.4944C26.1355 12.5598 26.1585 12.6226 26.193 12.6791C26.2276 12.7355 26.2732 12.7845 26.327 12.823C26.3798 12.863 26.44 12.892 26.5042 12.9083C26.5684 12.9246 26.6352 12.9278 26.7006 12.9179C26.7661 12.9079 26.8289 12.8849 26.8853 12.8502C26.9417 12.8155 26.9905 12.7699 27.029 12.716L27.649 11.874C27.689 11.8213 27.7181 11.7611 27.7345 11.6969C27.7509 11.6328 27.7542 11.566 27.7443 11.5006C27.7344 11.4351 27.7115 11.3723 27.677 11.3159C27.6424 11.2594 27.5968 11.2105 27.543 11.172Z" fill="url(#paint45_radial_55_1610)"/>
<g filter="url(#filter7_f_55_1610)">
<path d="M17.15 11.394C16.95 11.594 16.95 11.904 17.15 12.104L17.89 12.844C18.09 13.044 18.4 13.044 18.6 12.844C18.8 12.644 18.8 12.334 18.6 12.134L17.86 11.394C17.66 11.194 17.34 11.194 17.15 11.394Z" fill="#AD8994"/>
</g>
<path d="M17.28 11.272C17.08 11.472 17.08 11.782 17.28 11.982L18.02 12.722C18.22 12.922 18.53 12.922 18.73 12.722C18.93 12.522 18.93 12.212 18.73 12.012L17.99 11.272C17.79 11.072 17.47 11.072 17.28 11.272Z" fill="url(#paint46_linear_55_1610)"/>
</g>
<defs>
<filter id="filter0_d_55_1610" x="-2" y="0" width="40" height="40" filterUnits="userSpaceOnUse" color-interpolation-filters="sRGB">
<feFlood flood-opacity="0" result="BackgroundImageFix"/>
<feColorMatrix in="SourceAlpha" type="matrix" values="0 0 0 0 0 0 0 0 0 0 0 0 0 0 0 0 0 0 127 0" result="hardAlpha"/>
<feOffset dy="4"/>
<feGaussianBlur stdDeviation="2"/>
<feComposite in2="hardAlpha" operator="out"/>
<feColorMatrix type="matrix" values="0 0 0 0 0 0 0 0 0 0 0 0 0 0 0 0 0 0 0.25 0"/>
<feBlend mode="normal" in2="BackgroundImageFix" result="effect1_dropShadow_55_1610"/>
<feBlend mode="normal" in="SourceGraphic" in2="effect1_dropShadow_55_1610" result="shape"/>
</filter>
<filter id="filter1_f_55_1610" x="4.75023" y="14.0905" width="26.3658" height="5.41351" filterUnits="userSpaceOnUse" color-interpolation-filters="sRGB">
<feFlood flood-opacity="0" result="BackgroundImageFix"/>
<feBlend mode="normal" in="SourceGraphic" in2="BackgroundImageFix" result="shape"/>
<feGaussianBlur stdDeviation="0.125" result="effect1_foregroundBlur_55_1610"/>
</filter>
<filter id="filter2_f_55_1610" x="3.40601" y="15.0062" width="29.359" height="4.88483" filterUnits="userSpaceOnUse" color-interpolation-filters="sRGB">
<feFlood flood-opacity="0" result="BackgroundImageFix"/>
<feBlend mode="normal" in="SourceGraphic" in2="BackgroundImageFix" result="shape"/>
<feGaussianBlur stdDeviation="0.5" result="effect1_foregroundBlur_55_1610"/>
</filter>
<filter id="filter3_f_55_1610" x="21.458" y="14.09" width="2.25" height="2.25" filterUnits="userSpaceOnUse" color-interpolation-filters="sRGB">
<feFlood flood-opacity="0" result="BackgroundImageFix"/>
<feBlend mode="normal" in="SourceGraphic" in2="BackgroundImageFix" result="shape"/>
<feGaussianBlur stdDeviation="0.125" result="effect1_foregroundBlur_55_1610"/>
</filter>
<filter id="filter4_f_55_1610" x="11.894" y="14.2" width="2.24251" height="2.25" filterUnits="userSpaceOnUse" color-interpolation-filters="sRGB">
<feFlood flood-opacity="0" result="BackgroundImageFix"/>
<feBlend mode="normal" in="SourceGraphic" in2="BackgroundImageFix" result="shape"/>
<feGaussianBlur stdDeviation="0.125" result="effect1_foregroundBlur_55_1610"/>
</filter>
<filter id="filter5_f_55_1610" x="7.7029" y="10.9379" width="2.10783" height="2.36353" filterUnits="userSpaceOnUse" color-interpolation-filters="sRGB">
<feFlood flood-opacity="0" result="BackgroundImageFix"/>
<feBlend mode="normal" in="SourceGraphic" in2="BackgroundImageFix" result="shape"/>
<feGaussianBlur stdDeviation="0.125" result="effect1_foregroundBlur_55_1610"/>
</filter>
<filter id="filter6_f_55_1610" x="25.7555" y="10.9625" width="2.13007" height="2.35306" filterUnits="userSpaceOnUse" color-interpolation-filters="sRGB">
<feFlood flood-opacity="0" result="BackgroundImageFix"/>
<feBlend mode="normal" in="SourceGraphic" in2="BackgroundImageFix" result="shape"/>
<feGaussianBlur stdDeviation="0.125" result="effect1_foregroundBlur_55_1610"/>
</filter>
<filter id="filter7_f_55_1610" x="16.75" y="10.994" width="2.25" height="2.25" filterUnits="userSpaceOnUse" color-interpolation-filters="sRGB">
<feFlood flood-opacity="0" result="BackgroundImageFix"/>
<feBlend mode="normal" in="SourceGraphic" in2="BackgroundImageFix" result="shape"/>
<feGaussianBlur stdDeviation="0.125" result="effect1_foregroundBlur_55_1610"/>
</filter>
<linearGradient id="paint0_linear_55_1610" x1="10.5" y1="7.875" x2="12.5" y2="7.875" gradientUnits="userSpaceOnUse">
<stop stop-color="#3F92A6"/>
<stop offset="0.137" stop-color="#52B4CF"/>
<stop offset="0.563" stop-color="#73E5FF"/>
<stop offset="0.816" stop-color="#71E2FC"/>
<stop offset="1" stop-color="#5BD0EF"/>
</linearGradient>
<radialGradient id="paint1_radial_55_1610" cx="0" cy="0" r="1" gradientUnits="userSpaceOnUse" gradientTransform="translate(11.93 6.516) rotate(90) scale(0.50781 0.97656)">
<stop stop-color="#8BFDFF"/>
<stop offset="1" stop-color="#8DFFFF" stop-opacity="0"/>
</radialGradient>
<radialGradient id="paint2_radial_55_1610" cx="0" cy="0" r="1" gradientUnits="userSpaceOnUse" gradientTransform="translate(12.438 1.719) rotate(117.14) scale(4.17886 10.3877)">
<stop offset="0.175" stop-color="#FFEF5B"/>
<stop offset="0.814" stop-color="#FDA43A"/>
</radialGradient>
<radialGradient id="paint3_radial_55_1610" cx="0" cy="0" r="1" gradientUnits="userSpaceOnUse" gradientTransform="translate(11.7189 3.18447) rotate(106.757) scale(2.05937)">
<stop stop-color="#FECF4D"/>
<stop offset="1" stop-color="#FF9B32"/>
</radialGradient>
<linearGradient id="paint4_linear_55_1610" x1="17" y1="7.875" x2="19" y2="7.875" gradientUnits="userSpaceOnUse">
<stop stop-color="#3F92A6"/>
<stop offset="0.137" stop-color="#52B4CF"/>
<stop offset="0.563" stop-color="#73E5FF"/>
<stop offset="0.816" stop-color="#71E2FC"/>
<stop offset="1" stop-color="#5BD0EF"/>
</linearGradient>
<radialGradient id="paint5_radial_55_1610" cx="0" cy="0" r="1" gradientUnits="userSpaceOnUse" gradientTransform="translate(18.43 6.516) rotate(90) scale(0.50781 0.97656)">
<stop stop-color="#8BFDFF"/>
<stop offset="1" stop-color="#8DFFFF" stop-opacity="0"/>
</radialGradient>
<radialGradient id="paint6_radial_55_1610" cx="0" cy="0" r="1" gradientUnits="userSpaceOnUse" gradientTransform="translate(18.948 1.719) rotate(117.14) scale(4.17886 10.3877)">
<stop offset="0.175" stop-color="#FFEF5B"/>
<stop offset="0.814" stop-color="#FDA43A"/>
</radialGradient>
<radialGradient id="paint7_radial_55_1610" cx="0" cy="0" r="1" gradientUnits="userSpaceOnUse" gradientTransform="translate(18.2188 3.20981) rotate(106.686) scale(2.06788 2.06014)">
<stop stop-color="#FECF4D"/>
<stop offset="1" stop-color="#FF9B32"/>
</radialGradient>
<linearGradient id="paint8_linear_55_1610" x1="23.5" y1="7.95599" x2="25.5" y2="7.95599" gradientUnits="userSpaceOnUse">
<stop stop-color="#3F92A6"/>
<stop offset="0.137" stop-color="#52B4CF"/>
<stop offset="0.563" stop-color="#73E5FF"/>
<stop offset="0.816" stop-color="#71E2FC"/>
<stop offset="1" stop-color="#5BD0EF"/>
</linearGradient>
<radialGradient id="paint9_radial_55_1610" cx="0" cy="0" r="1" gradientUnits="userSpaceOnUse" gradientTransform="translate(24.93 6.59699) rotate(90) scale(0.50781 0.97656)">
<stop stop-color="#8BFDFF"/>
<stop offset="1" stop-color="#8DFFFF" stop-opacity="0"/>
</radialGradient>
<radialGradient id="paint10_radial_55_1610" cx="0" cy="0" r="1" gradientUnits="userSpaceOnUse" gradientTransform="translate(25.4394 1.71777) rotate(117.062) scale(4.17597 10.3602)">
<stop offset="0.175" stop-color="#FFEF5B"/>
<stop offset="0.814" stop-color="#FDA43A"/>
</radialGradient>
<radialGradient id="paint11_radial_55_1610" cx="0" cy="0" r="1" gradientUnits="userSpaceOnUse" gradientTransform="translate(24.719 3.18399) rotate(106.686) scale(2.06787 2.06015)">
<stop stop-color="#FECF4D"/>
<stop offset="1" stop-color="#FF9B32"/>
</radialGradient>
<linearGradient id="paint12_linear_55_1610" x1="4" y1="22.498" x2="31.563" y2="22.498" gradientUnits="userSpaceOnUse">
<stop offset="0.006" stop-color="#BB8960"/>
<stop offset="0.129" stop-color="#DC9A6F"/>
<stop offset="0.543" stop-color="#F6A377"/>
<stop offset="0.698" stop-color="#F8A672"/>
<stop offset="0.858" stop-color="#FBAA6C"/>
<stop offset="0.939" stop-color="#E99952"/>
<stop offset="0.982" stop-color="#CC894F"/>
</linearGradient>
<radialGradient id="paint13_radial_55_1610" cx="0" cy="0" r="1" gradientUnits="userSpaceOnUse" gradientTransform="translate(23.125 24.188) rotate(90) scale(11.4375 6.67388)">
<stop offset="0.006" stop-color="#FFBE8A"/>
<stop offset="0.982" stop-color="#FFBB8A" stop-opacity="0"/>
</radialGradient>
<linearGradient id="paint14_linear_55_1610" x1="18" y1="24.813" x2="18" y2="30.25" gradientUnits="userSpaceOnUse">
<stop offset="0.739" stop-color="#F7A378" stop-opacity="0"/>
<stop offset="0.862" stop-color="#E4828A"/>
<stop offset="0.954" stop-color="#BA5CA3"/>
</linearGradient>
<linearGradient id="paint15_linear_55_1610" x1="4.563" y1="22.985" x2="31.563" y2="22.985" gradientUnits="userSpaceOnUse">
<stop offset="0.006" stop-color="#C7A88A"/>
<stop offset="0.038" stop-color="#D3B08F"/>
<stop offset="0.206" stop-color="#FFD0B4"/>
<stop offset="0.511" stop-color="#FFE3CA"/>
<stop offset="0.799" stop-color="#FFF7CF"/>
<stop offset="0.933" stop-color="#FFE5B6"/>
<stop offset="0.992" stop-color="#E9CAA0"/>
</linearGradient>
<linearGradient id="paint16_linear_55_1610" x1="5.698" y1="18.813" x2="30.524" y2="18.813" gradientUnits="userSpaceOnUse">
<stop stop-color="#BF6245"/>
<stop offset="0.388" stop-color="#BD6555"/>
<stop offset="0.679" stop-color="#A54D3B"/>
<stop offset="1" stop-color="#8E4229"/>
</linearGradient>
<radialGradient id="paint17_radial_55_1610" cx="0" cy="0" r="1" gradientUnits="userSpaceOnUse" gradientTransform="translate(28 11.563) rotate(141.595) scale(21.9329 35.062)">
<stop stop-color="#FFF2C2"/>
<stop offset="0.226" stop-color="#FFF2C2" stop-opacity="0.645"/>
<stop offset="0.636" stop-color="#FFF1C1" stop-opacity="0"/>
</radialGradient>
<radialGradient id="paint18_radial_55_1610" cx="0" cy="0" r="1" gradientUnits="userSpaceOnUse" gradientTransform="translate(26.188 11.063) rotate(90) scale(1.34375 8.5625)">
<stop stop-color="#FFFCC8"/>
<stop offset="1" stop-color="#FFF9C7" stop-opacity="0"/>
</radialGradient>
<linearGradient id="paint19_linear_55_1610" x1="32.01" y1="15.125" x2="29.438" y2="15.125" gradientUnits="userSpaceOnUse">
<stop stop-color="#EAD3A8"/>
<stop offset="0.466" stop-color="#FEE6B8"/>
<stop offset="0.903" stop-color="#FFF0C2" stop-opacity="0"/>
</linearGradient>
<linearGradient id="paint20_linear_55_1610" x1="18.005" y1="9.01599" x2="18.005" y2="19.023" gradientUnits="userSpaceOnUse">
<stop stop-color="#D8B38B"/>
<stop offset="0.03" stop-color="#F9C588"/>
<stop offset="0.16" stop-color="#FFE59F" stop-opacity="0"/>
</linearGradient>
<linearGradient id="paint21_linear_55_1610" x1="4" y1="15.125" x2="10.063" y2="15.125" gradientUnits="userSpaceOnUse">
<stop stop-color="#A9967B"/>
<stop offset="0.412" stop-color="#D2B79E"/>
<stop offset="1" stop-color="#DBBEA7" stop-opacity="0"/>
</linearGradient>
<radialGradient id="paint22_radial_55_1610" cx="0" cy="0" r="1" gradientUnits="userSpaceOnUse" gradientTransform="translate(18.005 18.313) rotate(90) scale(10.4375 8.04767)">
<stop stop-color="#FDDAC6"/>
<stop offset="1" stop-color="#FBD7C3" stop-opacity="0"/>
</radialGradient>
<radialGradient id="paint23_radial_55_1610" cx="0" cy="0" r="1" gradientUnits="userSpaceOnUse" gradientTransform="translate(25.25 19.023) rotate(96.0287) scale(7.14105 5.50599)">
<stop stop-color="#FFF4D0"/>
<stop offset="1" stop-color="#FFF3D1" stop-opacity="0"/>
</radialGradient>
<linearGradient id="paint24_linear_55_1610" x1="21.688" y1="18.563" x2="21.688" y2="14.02" gradientUnits="userSpaceOnUse">
<stop stop-color="#D697AC"/>
<stop offset="0.358" stop-color="#D697AC" stop-opacity="0"/>
</linearGradient>
<radialGradient id="paint25_radial_55_1610" cx="0" cy="0" r="1" gradientUnits="userSpaceOnUse" gradientTransform="translate(27.6216 11.8141) rotate(143.326) scale(20.7287 32.6077)">
<stop stop-color="#FFF2C2"/>
<stop offset="0.226" stop-color="#FFF2C2" stop-opacity="0.645"/>
<stop offset="0.636" stop-color="#FFF1C1" stop-opacity="0"/>
</radialGradient>
<radialGradient id="paint26_radial_55_1610" cx="0" cy="0" r="1" gradientUnits="userSpaceOnUse" gradientTransform="translate(25.868 11.36) rotate(90) scale(1.22102 8.28241)">
<stop stop-color="#FFFCC8"/>
<stop offset="1" stop-color="#FFF9C7" stop-opacity="0"/>
</radialGradient>
<linearGradient id="paint27_linear_55_1610" x1="31.5" y1="15.051" x2="29.012" y2="15.051" gradientUnits="userSpaceOnUse">
<stop stop-color="#EAD3A8"/>
<stop offset="0.466" stop-color="#FEE6B8"/>
<stop offset="0.903" stop-color="#FFF0C2" stop-opacity="0"/>
</linearGradient>
<linearGradient id="paint28_linear_55_1610" x1="17.953" y1="9.50001" x2="17.953" y2="18.594" gradientUnits="userSpaceOnUse">
<stop stop-color="#D8B38B"/>
<stop offset="0.03" stop-color="#F9C588"/>
<stop offset="0.16" stop-color="#FFE59F" stop-opacity="0"/>
</linearGradient>
<linearGradient id="paint29_linear_55_1610" x1="4.40601" y1="15.051" x2="10.27" y2="15.051" gradientUnits="userSpaceOnUse">
<stop stop-color="#A9967B"/>
<stop offset="0.412" stop-color="#D2B79E"/>
<stop offset="1" stop-color="#DBBEA7" stop-opacity="0"/>
</linearGradient>
<radialGradient id="paint30_radial_55_1610" cx="0" cy="0" r="1" gradientUnits="userSpaceOnUse" gradientTransform="translate(17.953 17.948) rotate(90) scale(9.48418 7.78442)">
<stop stop-color="#FDDAC6"/>
<stop offset="1" stop-color="#FBD7C3" stop-opacity="0"/>
</radialGradient>
<radialGradient id="paint31_radial_55_1610" cx="0" cy="0" r="1" gradientUnits="userSpaceOnUse" gradientTransform="translate(24.961 18.594) rotate(96.4145) scale(6.49359 5.32198)">
<stop stop-color="#FFF4D0"/>
<stop offset="1" stop-color="#FFF3D1" stop-opacity="0"/>
</radialGradient>
<linearGradient id="paint32_linear_55_1610" x1="22.96" y1="14.932" x2="22.313" y2="15.6" gradientUnits="userSpaceOnUse">
<stop stop-color="#FF79C8"/>
<stop offset="0.384" stop-color="#FF79D8"/>
<stop offset="1" stop-color="#C557AB"/>
</linearGradient>
<linearGradient id="paint33_linear_55_1610" x1="23.109" y1="14.849" x2="22.461" y2="15.517" gradientUnits="userSpaceOnUse">
<stop stop-color="#FF79C8"/>
<stop offset="0.384" stop-color="#FF79D8"/>
<stop offset="1" stop-color="#C557AB"/>
</linearGradient>
<radialGradient id="paint34_radial_55_1610" cx="0" cy="0" r="1" gradientUnits="userSpaceOnUse" gradientTransform="translate(23.356 15.457) rotate(127.091) scale(0.387461 0.386247)">
<stop stop-color="#FF80E2"/>
<stop offset="1" stop-color="#FF80E2" stop-opacity="0"/>
</radialGradient>
<linearGradient id="paint35_linear_55_1610" x1="12.645" y1="14.986" x2="13.348" y2="15.659" gradientUnits="userSpaceOnUse">
<stop stop-color="#D29440"/>
<stop offset="0.31" stop-color="#E29B3E"/>
<stop offset="0.635" stop-color="#EE9744"/>
<stop offset="1" stop-color="#F19542"/>
</linearGradient>
<radialGradient id="paint36_radial_55_1610" cx="0" cy="0" r="1" gradientUnits="userSpaceOnUse" gradientTransform="translate(13.61 14.825) rotate(136.827) scale(2.00964 1.57209)">
<stop offset="0.629" stop-color="#CF794B" stop-opacity="0"/>
<stop offset="1" stop-color="#CF794B"/>
</radialGradient>
<linearGradient id="paint37_linear_55_1610" x1="12.894" y1="14.786" x2="13.597" y2="15.459" gradientUnits="userSpaceOnUse">
<stop stop-color="#D29440"/>
<stop offset="0.31" stop-color="#E29B3E"/>
<stop offset="0.635" stop-color="#EE9744"/>
<stop offset="1" stop-color="#F19542"/>
</linearGradient>
<radialGradient id="paint38_radial_55_1610" cx="0" cy="0" r="1" gradientUnits="userSpaceOnUse" gradientTransform="translate(13.86 14.625) rotate(136.827) scale(2.00964 1.57209)">
<stop offset="0.629" stop-color="#CF794B" stop-opacity="0"/>
<stop offset="1" stop-color="#CF794B"/>
</radialGradient>
<radialGradient id="paint39_radial_55_1610" cx="0" cy="0" r="1" gradientUnits="userSpaceOnUse" gradientTransform="translate(14.017 14.421) rotate(45) scale(0.994376 0.696062)">
<stop stop-color="#FFC054"/>
<stop offset="1" stop-color="#FFBD42" stop-opacity="0"/>
</radialGradient>
<linearGradient id="paint40_linear_55_1610" x1="9.175" y1="11.903" x2="8.425" y2="12.45" gradientUnits="userSpaceOnUse">
<stop stop-color="#FF79C8"/>
<stop offset="0.384" stop-color="#FF79D8"/>
<stop offset="1" stop-color="#C557AB"/>
</linearGradient>
<linearGradient id="paint41_linear_55_1610" x1="9.46901" y1="11.781" x2="8.71901" y2="12.328" gradientUnits="userSpaceOnUse">
<stop stop-color="#FF79C8"/>
<stop offset="0.384" stop-color="#FF79D8"/>
<stop offset="1" stop-color="#C557AB"/>
</linearGradient>
<radialGradient id="paint42_radial_55_1610" cx="0" cy="0" r="1" gradientUnits="userSpaceOnUse" gradientTransform="translate(9.60901 12.423) rotate(136.636) scale(0.38686 0.385205)">
<stop stop-color="#FF80E2"/>
<stop offset="1" stop-color="#FF80E2" stop-opacity="0"/>
</radialGradient>
<linearGradient id="paint43_linear_55_1610" x1="26.401" y1="11.861" x2="27.198" y2="12.423" gradientUnits="userSpaceOnUse">
<stop stop-color="#FBA947"/>
<stop offset="0.31" stop-color="#FFB841"/>
<stop offset="0.635" stop-color="#FFC656"/>
<stop offset="1" stop-color="#F3A740"/>
</linearGradient>
<linearGradient id="paint44_linear_55_1610" x1="26.516" y1="11.719" x2="27.313" y2="12.281" gradientUnits="userSpaceOnUse">
<stop stop-color="#FBA947"/>
<stop offset="0.31" stop-color="#FFB841"/>
<stop offset="0.635" stop-color="#FFC656"/>
<stop offset="1" stop-color="#F3A740"/>
</linearGradient>
<radialGradient id="paint45_radial_55_1610" cx="0" cy="0" r="1" gradientUnits="userSpaceOnUse" gradientTransform="translate(26.1247 13.1248) rotate(-15.255) scale(1.06891)">
<stop offset="0.303" stop-color="#D88043"/>
<stop offset="1" stop-color="#D98044" stop-opacity="0"/>
</radialGradient>
<linearGradient id="paint46_linear_55_1610" x1="18.406" y1="11.672" x2="17.734" y2="12.359" gradientUnits="userSpaceOnUse">
<stop stop-color="#4FC3FF"/>
<stop offset="0.371" stop-color="#45B2FF"/>
<stop offset="1" stop-color="#417EDD"/>
</linearGradient>
</defs>
</svg>
