<svg width="32" height="32" viewBox="0 0 32 32" fill="none" xmlns="http://www.w3.org/2000/svg">
<g filter="url(#filter0_ii_55_1614)">
<path d="M26.13 4.10901H8.62501C7.85181 4.10901 7.22501 4.73581 7.22501 5.50901V28.498C7.22501 29.2712 7.85181 29.898 8.62501 29.898H26.13C26.9032 29.898 27.53 29.2712 27.53 28.498V5.50901C27.53 4.73581 26.9032 4.10901 26.13 4.10901Z" fill="url(#paint0_linear_55_1614)"/>
<path d="M26.13 4.10901H8.62501C7.85181 4.10901 7.22501 4.73581 7.22501 5.50901V28.498C7.22501 29.2712 7.85181 29.898 8.62501 29.898H26.13C26.9032 29.898 27.53 29.2712 27.53 28.498V5.50901C27.53 4.73581 26.9032 4.10901 26.13 4.10901Z" fill="url(#paint1_linear_55_1614)"/>
</g>
<g filter="url(#filter1_f_55_1614)">
<path d="M18.993 4.11001H8.89002C8.17602 4.11001 7.59702 4.73601 7.59702 5.51001V28.498C7.59702 28.549 7.60002 28.599 7.60402 28.648H22.459C23.119 28.648 23.655 28.068 23.655 27.354V9.53801C23.6566 9.29638 23.5674 9.06297 23.405 8.88401L18.995 4.10901L18.993 4.11001Z" fill="#91879F"/>
</g>
<g filter="url(#filter2_iiii_55_1614)">
<path d="M17.865 2.38801C17.6914 2.2149 17.4562 2.11779 17.211 2.11801H4.93801C4.22301 2.11801 3.64301 2.69801 3.64301 3.41201V26.642C3.64301 27.358 4.22301 27.938 4.93801 27.938H22.625C23.341 27.938 23.92 27.358 23.92 26.642V8.82701C23.9202 8.58184 23.8231 8.34662 23.65 8.17301L17.865 2.38801Z" fill="url(#paint2_linear_55_1614)"/>
</g>
<g filter="url(#filter3_f_55_1614)">
<path d="M17.251 2.50002C17.251 2.31402 17.305 2.19502 17.203 2.17502C17.3 2.18102 17.44 2.21602 17.529 2.25102C17.642 2.29602 17.502 2.39502 17.591 2.48102L17.599 2.49002L23.383 8.27402C23.5557 8.44787 23.6528 8.68294 23.653 8.92802V8.98602C23.653 8.77102 23.499 8.64302 23.383 8.64302H18.36C18.0656 8.64302 17.7833 8.52607 17.5751 8.31791C17.3669 8.10974 17.25 7.82741 17.25 7.53302L17.251 2.50002Z" fill="#D2C5DF"/>
</g>
<g filter="url(#filter4_ii_55_1614)">
<path d="M17.518 2.40003C17.518 2.21303 17.372 2.14003 17.27 2.12003C17.4943 2.13411 17.7058 2.22938 17.865 2.38803L23.649 8.17303C23.7351 8.25874 23.8034 8.36066 23.8499 8.47292C23.8965 8.58517 23.9203 8.70552 23.92 8.82703V8.88503C23.92 8.67003 23.765 8.54203 23.65 8.54203H18.628C18.3336 8.54203 18.0513 8.42508 17.8431 8.21691C17.635 8.00875 17.518 7.72642 17.518 7.43203V2.39903V2.40003Z" fill="url(#paint3_linear_55_1614)"/>
</g>
<path d="M17.518 2.40003C17.518 2.21303 17.372 2.14003 17.27 2.12003C17.4943 2.13411 17.7058 2.22938 17.865 2.38803L23.649 8.17303C23.7351 8.25874 23.8034 8.36066 23.8499 8.47292C23.8965 8.58517 23.9203 8.70552 23.92 8.82703V8.88503C23.92 8.67003 23.765 8.54203 23.65 8.54203H18.628C18.3336 8.54203 18.0513 8.42508 17.8431 8.21691C17.635 8.00875 17.518 7.72642 17.518 7.43203V2.39903V2.40003Z" fill="url(#paint4_linear_55_1614)"/>
<path d="M19.754 11.324H7.80202C7.54852 11.324 7.34302 11.5295 7.34302 11.783C7.34302 12.0365 7.54852 12.242 7.80202 12.242H19.754C20.0075 12.242 20.213 12.0365 20.213 11.783C20.213 11.5295 20.0075 11.324 19.754 11.324Z" fill="url(#paint5_linear_55_1614)"/>
<path d="M19.754 14.099H7.80202C7.54852 14.099 7.34302 14.3045 7.34302 14.558C7.34302 14.8115 7.54852 15.017 7.80202 15.017H19.754C20.0075 15.017 20.213 14.8115 20.213 14.558C20.213 14.3045 20.0075 14.099 19.754 14.099Z" fill="url(#paint6_linear_55_1614)"/>
<path d="M19.754 16.874H7.80202C7.54852 16.874 7.34302 17.0795 7.34302 17.333C7.34302 17.5865 7.54852 17.792 7.80202 17.792H19.754C20.0075 17.792 20.213 17.5865 20.213 17.333C20.213 17.0795 20.0075 16.874 19.754 16.874Z" fill="url(#paint7_linear_55_1614)"/>
<path d="M15.194 19.649H7.80202C7.54852 19.649 7.34302 19.8545 7.34302 20.108C7.34302 20.3615 7.54852 20.567 7.80202 20.567H15.194C15.4475 20.567 15.653 20.3615 15.653 20.108C15.653 19.8545 15.4475 19.649 15.194 19.649Z" fill="url(#paint8_linear_55_1614)"/>
<g filter="url(#filter5_f_55_1614)">
<path d="M23.795 13.484H22.413C22.3454 13.4844 22.2786 13.4995 22.2173 13.5282C22.1561 13.5568 22.1017 13.5984 22.058 13.65L21.157 14.7C21.1176 14.7467 21.096 14.8059 21.096 14.867C21.096 14.9281 21.1176 14.9873 21.157 15.034L22.057 16.084C22.148 16.19 22.277 16.25 22.413 16.25H23.795V13.484Z" fill="#BAA8C1"/>
</g>
<g filter="url(#filter6_ii_55_1614)">
<path d="M22.63 13.322C22.677 13.2697 22.7345 13.2278 22.7988 13.1992C22.8631 13.1706 22.9327 13.1559 23.003 13.156H26.303C26.3693 13.156 26.4329 13.1823 26.4798 13.2292C26.5267 13.2761 26.553 13.3397 26.553 13.406V15.672C26.553 15.7383 26.5267 15.8019 26.4798 15.8488C26.4329 15.8957 26.3693 15.922 26.303 15.922H23.003C22.9328 15.922 22.8634 15.9072 22.7993 15.8786C22.7352 15.85 22.6779 15.8082 22.631 15.756L21.688 14.706C21.6468 14.6601 21.6241 14.6007 21.6241 14.539C21.6241 14.4774 21.6468 14.4179 21.688 14.372L22.631 13.322H22.63Z" fill="url(#paint9_linear_55_1614)"/>
<path d="M22.63 13.322C22.677 13.2697 22.7345 13.2278 22.7988 13.1992C22.8631 13.1706 22.9327 13.1559 23.003 13.156H26.303C26.3693 13.156 26.4329 13.1823 26.4798 13.2292C26.5267 13.2761 26.553 13.3397 26.553 13.406V15.672C26.553 15.7383 26.5267 15.8019 26.4798 15.8488C26.4329 15.8957 26.3693 15.922 26.303 15.922H23.003C22.9328 15.922 22.8634 15.9072 22.7993 15.8786C22.7352 15.85 22.6779 15.8082 22.631 15.756L21.688 14.706C21.6468 14.6601 21.6241 14.6007 21.6241 14.539C21.6241 14.4774 21.6468 14.4179 21.688 14.372L22.631 13.322H22.63Z" fill="url(#paint10_linear_55_1614)"/>
</g>
<g filter="url(#filter7_f_55_1614)">
<path d="M27.436 20.488V23.254H25.43C25.3613 23.2539 25.2934 23.239 25.231 23.2103C25.1685 23.1817 25.113 23.14 25.068 23.088L24.151 22.038C24.1108 21.9916 24.0887 21.9324 24.0887 21.871C24.0887 21.8097 24.1108 21.7504 24.151 21.704L25.068 20.654C25.113 20.602 25.1685 20.5603 25.231 20.5317C25.2934 20.5031 25.3613 20.4882 25.43 20.488H27.436Z" fill="#91879F"/>
</g>
<g filter="url(#filter8_ii_55_1614)">
<path d="M25.615 20.275C25.6619 20.2228 25.7192 20.181 25.7833 20.1524C25.8474 20.1238 25.9168 20.109 25.987 20.109H29.287C29.3533 20.109 29.4169 20.1353 29.4638 20.1822C29.5107 20.2291 29.537 20.2927 29.537 20.359V22.625C29.537 22.6913 29.5107 22.7549 29.4638 22.8018C29.4169 22.8487 29.3533 22.875 29.287 22.875H25.987C25.9168 22.875 25.8474 22.8602 25.7833 22.8316C25.7192 22.803 25.6619 22.7612 25.615 22.709L24.672 21.659C24.6308 21.6131 24.608 21.5537 24.608 21.492C24.608 21.4304 24.6308 21.3709 24.672 21.325L25.615 20.275Z" fill="url(#paint11_linear_55_1614)"/>
<path d="M25.615 20.275C25.6619 20.2228 25.7192 20.181 25.7833 20.1524C25.8474 20.1238 25.9168 20.109 25.987 20.109H29.287C29.3533 20.109 29.4169 20.1353 29.4638 20.1822C29.5107 20.2291 29.537 20.2927 29.537 20.359V22.625C29.537 22.6913 29.5107 22.7549 29.4638 22.8018C29.4169 22.8487 29.3533 22.875 29.287 22.875H25.987C25.9168 22.875 25.8474 22.8602 25.7833 22.8316C25.7192 22.803 25.6619 22.7612 25.615 22.709L24.672 21.659C24.6308 21.6131 24.608 21.5537 24.608 21.492C24.608 21.4304 24.6308 21.3709 24.672 21.325L25.615 20.275Z" fill="url(#paint12_linear_55_1614)"/>
</g>
<defs>
<filter id="filter0_ii_55_1614" x="7.12501" y="4.00901" width="20.505" height="25.989" filterUnits="userSpaceOnUse" color-interpolation-filters="sRGB">
<feFlood flood-opacity="0" result="BackgroundImageFix"/>
<feBlend mode="normal" in="SourceGraphic" in2="BackgroundImageFix" result="shape"/>
<feColorMatrix in="SourceAlpha" type="matrix" values="0 0 0 0 0 0 0 0 0 0 0 0 0 0 0 0 0 0 127 0" result="hardAlpha"/>
<feOffset dx="0.1" dy="-0.1"/>
<feGaussianBlur stdDeviation="0.05"/>
<feComposite in2="hardAlpha" operator="arithmetic" k2="-1" k3="1"/>
<feColorMatrix type="matrix" values="0 0 0 0 0.596078 0 0 0 0 0.529412 0 0 0 0 0.67451 0 0 0 1 0"/>
<feBlend mode="normal" in2="shape" result="effect1_innerShadow_55_1614"/>
<feColorMatrix in="SourceAlpha" type="matrix" values="0 0 0 0 0 0 0 0 0 0 0 0 0 0 0 0 0 0 127 0" result="hardAlpha"/>
<feOffset dx="-0.1" dy="0.1"/>
<feGaussianBlur stdDeviation="0.1"/>
<feComposite in2="hardAlpha" operator="arithmetic" k2="-1" k3="1"/>
<feColorMatrix type="matrix" values="0 0 0 0 0.811765 0 0 0 0 0.8 0 0 0 0 0.827451 0 0 0 1 0"/>
<feBlend mode="normal" in2="effect1_innerShadow_55_1614" result="effect2_innerShadow_55_1614"/>
</filter>
<filter id="filter1_f_55_1614" x="6.59702" y="3.10901" width="18.058" height="26.539" filterUnits="userSpaceOnUse" color-interpolation-filters="sRGB">
<feFlood flood-opacity="0" result="BackgroundImageFix"/>
<feBlend mode="normal" in="SourceGraphic" in2="BackgroundImageFix" result="shape"/>
<feGaussianBlur stdDeviation="0.5" result="effect1_foregroundBlur_55_1614"/>
</filter>
<filter id="filter2_iiii_55_1614" x="3.54301" y="1.81801" width="20.677" height="26.22" filterUnits="userSpaceOnUse" color-interpolation-filters="sRGB">
<feFlood flood-opacity="0" result="BackgroundImageFix"/>
<feBlend mode="normal" in="SourceGraphic" in2="BackgroundImageFix" result="shape"/>
<feColorMatrix in="SourceAlpha" type="matrix" values="0 0 0 0 0 0 0 0 0 0 0 0 0 0 0 0 0 0 127 0" result="hardAlpha"/>
<feOffset dx="0.3" dy="-0.3"/>
<feGaussianBlur stdDeviation="0.3"/>
<feComposite in2="hardAlpha" operator="arithmetic" k2="-1" k3="1"/>
<feColorMatrix type="matrix" values="0 0 0 0 0.807843 0 0 0 0 0.768627 0 0 0 0 0.85098 0 0 0 1 0"/>
<feBlend mode="normal" in2="shape" result="effect1_innerShadow_55_1614"/>
<feColorMatrix in="SourceAlpha" type="matrix" values="0 0 0 0 0 0 0 0 0 0 0 0 0 0 0 0 0 0 127 0" result="hardAlpha"/>
<feOffset dx="0.1" dy="-0.1"/>
<feGaussianBlur stdDeviation="0.1"/>
<feComposite in2="hardAlpha" operator="arithmetic" k2="-1" k3="1"/>
<feColorMatrix type="matrix" values="0 0 0 0 0.709804 0 0 0 0 0.690196 0 0 0 0 0.733333 0 0 0 1 0"/>
<feBlend mode="normal" in2="effect1_innerShadow_55_1614" result="effect2_innerShadow_55_1614"/>
<feColorMatrix in="SourceAlpha" type="matrix" values="0 0 0 0 0 0 0 0 0 0 0 0 0 0 0 0 0 0 127 0" result="hardAlpha"/>
<feOffset dy="-0.1"/>
<feGaussianBlur stdDeviation="0.1"/>
<feComposite in2="hardAlpha" operator="arithmetic" k2="-1" k3="1"/>
<feColorMatrix type="matrix" values="0 0 0 0 0.72549 0 0 0 0 0.65098 0 0 0 0 0.8 0 0 0 1 0"/>
<feBlend mode="normal" in2="effect2_innerShadow_55_1614" result="effect3_innerShadow_55_1614"/>
<feColorMatrix in="SourceAlpha" type="matrix" values="0 0 0 0 0 0 0 0 0 0 0 0 0 0 0 0 0 0 127 0" result="hardAlpha"/>
<feOffset dx="-0.15" dy="0.15"/>
<feGaussianBlur stdDeviation="0.05"/>
<feComposite in2="hardAlpha" operator="arithmetic" k2="-1" k3="1"/>
<feColorMatrix type="matrix" values="0 0 0 0 0.952941 0 0 0 0 0.941176 0 0 0 0 0.964706 0 0 0 1 0"/>
<feBlend mode="normal" in2="effect3_innerShadow_55_1614" result="effect4_innerShadow_55_1614"/>
</filter>
<filter id="filter3_f_55_1614" x="16.703" y="1.67502" width="7.45001" height="7.811" filterUnits="userSpaceOnUse" color-interpolation-filters="sRGB">
<feFlood flood-opacity="0" result="BackgroundImageFix"/>
<feBlend mode="normal" in="SourceGraphic" in2="BackgroundImageFix" result="shape"/>
<feGaussianBlur stdDeviation="0.25" result="effect1_foregroundBlur_55_1614"/>
</filter>
<filter id="filter4_ii_55_1614" x="17.27" y="2.02003" width="6.74999" height="6.86501" filterUnits="userSpaceOnUse" color-interpolation-filters="sRGB">
<feFlood flood-opacity="0" result="BackgroundImageFix"/>
<feBlend mode="normal" in="SourceGraphic" in2="BackgroundImageFix" result="shape"/>
<feColorMatrix in="SourceAlpha" type="matrix" values="0 0 0 0 0 0 0 0 0 0 0 0 0 0 0 0 0 0 127 0" result="hardAlpha"/>
<feOffset dx="0.1"/>
<feGaussianBlur stdDeviation="0.075"/>
<feComposite in2="hardAlpha" operator="arithmetic" k2="-1" k3="1"/>
<feColorMatrix type="matrix" values="0 0 0 0 0.631373 0 0 0 0 0.611765 0 0 0 0 0.654902 0 0 0 1 0"/>
<feBlend mode="normal" in2="shape" result="effect1_innerShadow_55_1614"/>
<feColorMatrix in="SourceAlpha" type="matrix" values="0 0 0 0 0 0 0 0 0 0 0 0 0 0 0 0 0 0 127 0" result="hardAlpha"/>
<feOffset dy="-0.1"/>
<feGaussianBlur stdDeviation="0.075"/>
<feComposite in2="hardAlpha" operator="arithmetic" k2="-1" k3="1"/>
<feColorMatrix type="matrix" values="0 0 0 0 0.752941 0 0 0 0 0.67451 0 0 0 0 0.835294 0 0 0 1 0"/>
<feBlend mode="normal" in2="effect1_innerShadow_55_1614" result="effect2_innerShadow_55_1614"/>
</filter>
<filter id="filter5_f_55_1614" x="20.496" y="12.884" width="3.89904" height="3.96599" filterUnits="userSpaceOnUse" color-interpolation-filters="sRGB">
<feFlood flood-opacity="0" result="BackgroundImageFix"/>
<feBlend mode="normal" in="SourceGraphic" in2="BackgroundImageFix" result="shape"/>
<feGaussianBlur stdDeviation="0.3" result="effect1_foregroundBlur_55_1614"/>
</filter>
<filter id="filter6_ii_55_1614" x="21.4241" y="12.956" width="5.32896" height="3.16599" filterUnits="userSpaceOnUse" color-interpolation-filters="sRGB">
<feFlood flood-opacity="0" result="BackgroundImageFix"/>
<feBlend mode="normal" in="SourceGraphic" in2="BackgroundImageFix" result="shape"/>
<feColorMatrix in="SourceAlpha" type="matrix" values="0 0 0 0 0 0 0 0 0 0 0 0 0 0 0 0 0 0 127 0" result="hardAlpha"/>
<feOffset dx="-0.2" dy="0.2"/>
<feGaussianBlur stdDeviation="0.15"/>
<feComposite in2="hardAlpha" operator="arithmetic" k2="-1" k3="1"/>
<feColorMatrix type="matrix" values="0 0 0 0 0.92549 0 0 0 0 0.4 0 0 0 0 0.576471 0 0 0 1 0"/>
<feBlend mode="normal" in2="shape" result="effect1_innerShadow_55_1614"/>
<feColorMatrix in="SourceAlpha" type="matrix" values="0 0 0 0 0 0 0 0 0 0 0 0 0 0 0 0 0 0 127 0" result="hardAlpha"/>
<feOffset dx="0.2" dy="-0.2"/>
<feGaussianBlur stdDeviation="0.15"/>
<feComposite in2="hardAlpha" operator="arithmetic" k2="-1" k3="1"/>
<feColorMatrix type="matrix" values="0 0 0 0 0.721569 0 0 0 0 0.223529 0 0 0 0 0.376471 0 0 0 1 0"/>
<feBlend mode="normal" in2="effect1_innerShadow_55_1614" result="effect2_innerShadow_55_1614"/>
</filter>
<filter id="filter7_f_55_1614" x="23.6887" y="20.088" width="4.14729" height="3.56599" filterUnits="userSpaceOnUse" color-interpolation-filters="sRGB">
<feFlood flood-opacity="0" result="BackgroundImageFix"/>
<feBlend mode="normal" in="SourceGraphic" in2="BackgroundImageFix" result="shape"/>
<feGaussianBlur stdDeviation="0.2" result="effect1_foregroundBlur_55_1614"/>
</filter>
<filter id="filter8_ii_55_1614" x="24.408" y="19.909" width="5.32896" height="3.16599" filterUnits="userSpaceOnUse" color-interpolation-filters="sRGB">
<feFlood flood-opacity="0" result="BackgroundImageFix"/>
<feBlend mode="normal" in="SourceGraphic" in2="BackgroundImageFix" result="shape"/>
<feColorMatrix in="SourceAlpha" type="matrix" values="0 0 0 0 0 0 0 0 0 0 0 0 0 0 0 0 0 0 127 0" result="hardAlpha"/>
<feOffset dx="-0.2" dy="0.2"/>
<feGaussianBlur stdDeviation="0.15"/>
<feComposite in2="hardAlpha" operator="arithmetic" k2="-1" k3="1"/>
<feColorMatrix type="matrix" values="0 0 0 0 0.988235 0 0 0 0 0.929412 0 0 0 0 0.439216 0 0 0 1 0"/>
<feBlend mode="normal" in2="shape" result="effect1_innerShadow_55_1614"/>
<feColorMatrix in="SourceAlpha" type="matrix" values="0 0 0 0 0 0 0 0 0 0 0 0 0 0 0 0 0 0 127 0" result="hardAlpha"/>
<feOffset dx="0.2" dy="-0.2"/>
<feGaussianBlur stdDeviation="0.15"/>
<feComposite in2="hardAlpha" operator="arithmetic" k2="-1" k3="1"/>
<feColorMatrix type="matrix" values="0 0 0 0 0.647059 0 0 0 0 0.411765 0 0 0 0 0.278431 0 0 0 1 0"/>
<feBlend mode="normal" in2="effect1_innerShadow_55_1614" result="effect2_innerShadow_55_1614"/>
</filter>
<linearGradient id="paint0_linear_55_1614" x1="20.827" y1="24.25" x2="28.327" y2="27.813" gradientUnits="userSpaceOnUse">
<stop stop-color="#AFAAB6"/>
<stop offset="1" stop-color="#B7B0C0"/>
</linearGradient>
<linearGradient id="paint1_linear_55_1614" x1="8.76401" y1="30.313" x2="21.264" y2="22.375" gradientUnits="userSpaceOnUse">
<stop stop-color="#A79FB2"/>
<stop offset="1" stop-color="#A79FB2" stop-opacity="0"/>
</linearGradient>
<linearGradient id="paint2_linear_55_1614" x1="13.782" y1="2.11701" x2="13.782" y2="27.938" gradientUnits="userSpaceOnUse">
<stop stop-color="#EBE4F3"/>
<stop offset="1" stop-color="#E4DAF0"/>
</linearGradient>
<linearGradient id="paint3_linear_55_1614" x1="17.98" y1="8.28203" x2="20.423" y2="5.83903" gradientUnits="userSpaceOnUse">
<stop stop-color="#D9D3E1"/>
<stop offset="1" stop-color="#CCC7D1"/>
</linearGradient>
<linearGradient id="paint4_linear_55_1614" x1="20.972" y1="5.36203" x2="20.379" y2="5.94003" gradientUnits="userSpaceOnUse">
<stop offset="0.119" stop-color="#DBDADC"/>
<stop offset="0.577" stop-color="#CBC7D0" stop-opacity="0"/>
</linearGradient>
<linearGradient id="paint5_linear_55_1614" x1="7.34302" y1="11.783" x2="20.213" y2="11.783" gradientUnits="userSpaceOnUse">
<stop stop-color="#9C96A2"/>
<stop offset="1" stop-color="#9A95A1"/>
</linearGradient>
<linearGradient id="paint6_linear_55_1614" x1="7.34302" y1="14.558" x2="20.213" y2="14.558" gradientUnits="userSpaceOnUse">
<stop stop-color="#9C96A2"/>
<stop offset="1" stop-color="#9A95A1"/>
</linearGradient>
<linearGradient id="paint7_linear_55_1614" x1="7.34302" y1="17.333" x2="20.213" y2="17.333" gradientUnits="userSpaceOnUse">
<stop stop-color="#9C96A2"/>
<stop offset="1" stop-color="#9A95A1"/>
</linearGradient>
<linearGradient id="paint8_linear_55_1614" x1="7.34302" y1="20.108" x2="15.653" y2="20.108" gradientUnits="userSpaceOnUse">
<stop stop-color="#9C96A2"/>
<stop offset="1" stop-color="#9A95A1"/>
</linearGradient>
<linearGradient id="paint9_linear_55_1614" x1="24.088" y1="13.156" x2="24.088" y2="15.922" gradientUnits="userSpaceOnUse">
<stop stop-color="#E0437B"/>
<stop offset="1" stop-color="#DC4369"/>
</linearGradient>
<linearGradient id="paint10_linear_55_1614" x1="22.03" y1="13.906" x2="22.42" y2="14.219" gradientUnits="userSpaceOnUse">
<stop offset="0.263" stop-color="#CA4A72"/>
<stop offset="1" stop-color="#CA4A72" stop-opacity="0"/>
</linearGradient>
<linearGradient id="paint11_linear_55_1614" x1="27.073" y1="20.109" x2="27.073" y2="22.875" gradientUnits="userSpaceOnUse">
<stop stop-color="#E4BD58"/>
<stop offset="1" stop-color="#D89D52"/>
</linearGradient>
<linearGradient id="paint12_linear_55_1614" x1="25.014" y1="20.859" x2="25.498" y2="21.219" gradientUnits="userSpaceOnUse">
<stop offset="0.263" stop-color="#AB9365"/>
<stop offset="1" stop-color="#E3B758" stop-opacity="0"/>
</linearGradient>
</defs>
</svg>
