<svg width="430" height="109" viewBox="0 0 430 109" fill="none" xmlns="http://www.w3.org/2000/svg">
<path d="M0.815 94.938V13.762C0.815 6.673 5.541 1.94699 12.491 1.94699C19.441 1.94699 24.306 6.673 24.306 13.762V44.064L64.755 5.283C69.342 0.973996 76.709 0.834998 80.879 5.283C85.049 9.731 84.771 15.986 80.045 20.573L51.55 48.095L85.327 88.683C89.219 92.714 89.219 99.525 84.215 103.973C79.211 108.282 71.983 106.892 68.091 102.583L35.426 63.802L24.306 74.644V94.938C24.306 101.888 19.441 106.614 12.491 106.614C5.541 106.614 0.815 101.888 0.815 94.938ZM147.709 1.94699C154.798 1.94699 159.385 5.422 161.748 11.121L195.108 92.019C197.61 98.135 194.83 104.112 188.297 106.058C182.042 108.143 176.204 104.668 173.702 98.274L167.447 81.872H127.832L121.716 98.274C119.214 104.668 113.376 108.143 106.982 106.058C100.588 104.112 97.8077 98.135 100.31 92.019L133.67 11.121C136.033 5.422 140.62 1.94699 147.709 1.94699ZM147.431 30.025L135.199 62.412H160.219L147.987 30.025H147.431ZM266.224 77.424L286.379 13.623C289.159 4.866 294.858 1.94699 303.615 1.94699C313.901 1.94699 319.461 6.95099 319.461 17.376V95.494C319.461 102.027 315.569 106.614 309.036 106.614C302.503 106.614 298.611 102.027 298.611 95.494V36.28H298.333L277.066 98.413C275.537 103.278 271.367 105.919 266.085 105.919C260.803 105.919 256.633 103.278 255.104 98.413L233.837 36.28H233.559V95.494C233.559 102.027 229.667 106.614 223.134 106.614C216.601 106.614 212.709 102.027 212.709 95.494V17.376C212.709 6.95099 218.269 1.94699 228.555 1.94699C237.312 1.94699 243.011 4.866 245.791 13.623L265.946 77.424H266.224ZM382.077 106.614C375.127 106.614 370.401 101.749 370.401 94.799V65.748L338.292 18.488C334.678 13.067 336.346 7.08999 340.794 4.032C345.798 0.556993 352.748 1.391 356.362 6.812L382.077 44.342L407.792 6.812C411.406 1.391 418.356 0.556993 423.36 4.032C427.808 7.08999 429.476 13.067 425.862 18.488L393.753 65.748V94.799C393.753 101.749 389.027 106.614 382.077 106.614Z" fill="#5690FF"/>
<path d="M24.306 44.064H23.306V46.4081L24.9981 44.7858L24.306 44.064ZM64.755 5.283L64.0703 4.55411L64.0629 4.56117L64.755 5.283ZM80.879 5.283L80.1495 5.96694L80.1495 5.96694L80.879 5.283ZM80.045 20.573L80.7397 21.2923L80.7415 21.2906L80.045 20.573ZM51.55 48.095L50.8553 47.3757L50.1873 48.0209L50.7813 48.7347L51.55 48.095ZM85.327 88.683L84.5583 89.3227L84.582 89.351L84.6076 89.3776L85.327 88.683ZM84.215 103.973L84.8675 104.731L84.8735 104.726L84.8794 104.72L84.215 103.973ZM68.091 102.583L67.3262 103.227L67.3373 103.24L67.3489 103.253L68.091 102.583ZM35.426 63.802L36.1908 63.1578L35.498 62.3352L34.7279 63.086L35.426 63.802ZM24.306 74.644L23.6079 73.928L23.306 74.2224V74.644H24.306ZM1.815 94.938V13.762H-0.185V94.938H1.815ZM1.815 13.762C1.815 10.4445 2.91665 7.75602 4.75683 5.90024C6.59654 4.04494 9.24849 2.94699 12.491 2.94699V0.946992C8.78351 0.946992 5.59747 2.21204 3.33667 4.492C1.07635 6.77148 -0.185 9.99047 -0.185 13.762H1.815ZM12.491 2.94699C15.7347 2.94699 18.4247 4.04594 20.3006 5.90618C22.1752 7.76515 23.306 10.453 23.306 13.762H25.306C25.306 9.98202 24.0043 6.76234 21.7089 4.48606C19.4148 2.21105 16.1973 0.946992 12.491 0.946992V2.94699ZM23.306 13.762V44.064H25.306V13.762H23.306ZM24.9981 44.7858L65.4471 6.00483L64.0629 4.56117L23.6139 43.3422L24.9981 44.7858ZM65.4397 6.01185C69.6766 2.0317 76.4051 1.97298 80.1495 5.96694L81.6085 4.59906C77.0129 -0.302988 69.0074 -0.0837081 64.0703 4.55415L65.4397 6.01185ZM80.1495 5.96694C82.06 8.00488 82.9235 10.4192 82.7993 12.8243C82.6749 15.2343 81.5538 17.715 79.3485 19.8554L80.7415 21.2906C83.2622 18.844 84.6431 15.9036 84.7967 12.9274C84.9505 9.94632 83.868 7.00911 81.6085 4.59906L80.1495 5.96694ZM79.3503 19.8537L50.8553 47.3757L52.2447 48.8143L80.7397 21.2923L79.3503 19.8537ZM50.7813 48.7347L84.5583 89.3227L86.0957 88.0433L52.3187 47.4553L50.7813 48.7347ZM84.6076 89.3776C88.0886 92.983 88.1473 99.1396 83.5506 103.226L84.8794 104.72C90.2907 99.9104 90.3494 92.445 86.0464 87.9884L84.6076 89.3776ZM83.5625 103.215C79.0466 107.104 72.4328 105.898 68.8331 101.913L67.3489 103.253C71.5332 107.886 79.3754 109.46 84.8675 104.731L83.5625 103.215ZM68.8558 101.939L36.1908 63.1578L34.6612 64.4462L67.3262 103.227L68.8558 101.939ZM34.7279 63.086L23.6079 73.928L25.0041 75.36L36.1241 64.518L34.7279 63.086ZM23.306 74.644V94.938H25.306V74.644H23.306ZM23.306 94.938C23.306 98.1722 22.1788 100.825 20.3036 102.669C18.4268 104.515 15.7349 105.614 12.491 105.614V107.614C16.1971 107.614 19.4127 106.35 21.7059 104.095C24.0007 101.839 25.306 98.6538 25.306 94.938H23.306ZM12.491 105.614C9.24825 105.614 6.59448 104.516 4.75386 102.675C2.91324 100.835 1.815 98.1808 1.815 94.938H-0.185C-0.185 98.6452 1.07976 101.829 3.33964 104.089C5.59953 106.349 8.78376 107.614 12.491 107.614V105.614ZM161.748 11.121L162.672 10.7398L162.671 10.738L161.748 11.121ZM195.108 92.019L196.033 91.6404L196.032 91.6378L195.108 92.019ZM188.297 106.058L188.011 105.1L187.996 105.104L187.98 105.109L188.297 106.058ZM173.702 98.274L172.767 98.6303L172.77 98.6384L173.702 98.274ZM167.447 81.872L168.381 81.5157L168.136 80.872H167.447V81.872ZM127.832 81.872V80.872H127.137L126.895 81.5226L127.832 81.872ZM121.716 98.274L122.647 98.6384L122.65 98.6309L122.653 98.6234L121.716 98.274ZM106.982 106.058L107.292 105.107L107.282 105.104L107.273 105.101L106.982 106.058ZM100.31 92.019L99.3852 91.6378L99.3841 91.6404L100.31 92.019ZM133.67 11.121L132.746 10.738L132.745 10.7398L133.67 11.121ZM147.431 30.025V29.025H146.739L146.495 29.6717L147.431 30.025ZM135.199 62.412L134.263 62.0587L133.752 63.412H135.199V62.412ZM160.219 62.412V63.412H161.665L161.154 62.0587L160.219 62.412ZM147.987 30.025L148.922 29.6717L148.678 29.025H147.987V30.025ZM147.709 2.94699C151.085 2.94699 153.801 3.77229 155.939 5.22414C158.078 6.67721 159.704 8.8018 160.824 11.504L162.671 10.738C161.429 7.74119 159.579 5.27878 157.062 3.5696C154.544 1.8592 151.422 0.946992 147.709 0.946992V2.94699ZM160.823 11.5022L194.183 92.4002L196.032 91.6378L162.672 10.7398L160.823 11.5022ZM194.182 92.3976C195.338 95.2243 195.252 97.9508 194.188 100.17C193.126 102.388 191.04 104.197 188.011 105.1L188.582 107.016C192.087 105.973 194.657 103.82 195.992 101.034C197.326 98.2497 197.379 94.9297 196.033 91.6404L194.182 92.3976ZM187.98 105.109C182.341 106.989 176.986 103.924 174.633 97.9096L172.77 98.6384C175.421 105.412 181.742 109.297 188.613 107.007L187.98 105.109ZM174.636 97.9177L168.381 81.5157L166.512 82.2283L172.767 98.6303L174.636 97.9177ZM167.447 80.872H127.832V82.872H167.447V80.872ZM126.895 81.5226L120.779 97.9246L122.653 98.6234L128.769 82.2214L126.895 81.5226ZM120.784 97.9096C118.435 103.915 113.082 106.995 107.292 105.107L106.672 107.009C113.67 109.291 119.993 105.421 122.647 98.6384L120.784 97.9096ZM107.273 105.101C104.317 104.202 102.263 102.396 101.214 100.175C100.165 97.9532 100.079 95.2242 101.235 92.3976L99.3841 91.6404C98.0385 94.9298 98.0917 98.2473 99.4054 101.029C100.72 103.812 103.252 105.968 106.691 107.015L107.273 105.101ZM101.234 92.4002L134.594 11.5022L132.745 10.7398L99.3852 91.6378L101.234 92.4002ZM134.593 11.504C135.714 8.8018 137.339 6.67721 139.479 5.22414C141.617 3.77229 144.333 2.94699 147.709 2.94699V0.946992C143.996 0.946992 140.874 1.8592 138.355 3.5696C135.838 5.27878 133.989 7.74119 132.746 10.738L134.593 11.504ZM146.495 29.6717L134.263 62.0587L136.134 62.7653L148.366 30.3783L146.495 29.6717ZM135.199 63.412H160.219V61.412H135.199V63.412ZM161.154 62.0587L148.922 29.6717L147.051 30.3783L159.283 62.7653L161.154 62.0587ZM147.987 29.025H147.431V31.025H147.987V29.025ZM266.224 77.424V78.424H266.956L267.177 77.7252L266.224 77.424ZM286.379 13.623L285.425 13.3204L285.425 13.3218L286.379 13.623ZM298.611 36.28H299.611V35.28H298.611V36.28ZM298.333 36.28V35.28H297.618L297.386 35.9562L298.333 36.28ZM277.066 98.413L276.119 98.0892L276.115 98.1011L276.112 98.1132L277.066 98.413ZM255.104 98.413L256.058 98.1132L256.054 98.1011L256.05 98.0892L255.104 98.413ZM233.837 36.28L234.783 35.9562L234.551 35.28H233.837V36.28ZM233.559 36.28V35.28H232.559V36.28H233.559ZM245.791 13.623L246.744 13.3218L246.744 13.3204L245.791 13.623ZM265.946 77.424L264.992 77.7252L265.213 78.424H265.946V77.424ZM267.177 77.7252L287.332 13.9242L285.425 13.3218L265.27 77.1228L267.177 77.7252ZM287.332 13.9256C288.669 9.71177 290.67 7.01359 293.292 5.34478C295.935 3.66276 299.334 2.94699 303.615 2.94699V0.946992C299.138 0.946992 295.309 1.69073 292.218 3.65746C289.107 5.6374 286.868 8.77722 285.425 13.3204L287.332 13.9256ZM303.615 2.94699C308.61 2.94699 312.281 4.16246 314.704 6.47547C317.119 8.78038 318.461 12.3346 318.461 17.376H320.461C320.461 11.9924 319.022 7.83211 316.085 5.02876C313.157 2.23353 308.905 0.946992 303.615 0.946992V2.94699ZM318.461 17.376V95.494H320.461V17.376H318.461ZM318.461 95.494C318.461 98.5656 317.547 101.088 315.959 102.83C314.381 104.562 312.055 105.614 309.036 105.614V107.614C312.549 107.614 315.436 106.373 317.437 104.178C319.428 101.993 320.461 98.9554 320.461 95.494H318.461ZM309.036 105.614C306.016 105.614 303.691 104.562 302.112 102.83C300.524 101.088 299.611 98.5656 299.611 95.494H297.611C297.611 98.9554 298.643 101.993 300.634 104.178C302.635 106.373 305.522 107.614 309.036 107.614V105.614ZM299.611 95.494V36.28H297.611V95.494H299.611ZM298.611 35.28H298.333V37.28H298.611V35.28ZM297.386 35.9562L276.119 98.0892L278.012 98.7368L299.279 36.6038L297.386 35.9562ZM276.112 98.1132C274.734 102.496 271.003 104.919 266.085 104.919V106.919C271.73 106.919 276.339 104.06 278.02 98.7128L276.112 98.1132ZM266.085 104.919C261.166 104.919 257.435 102.496 256.058 98.1132L254.15 98.7128C255.83 104.06 260.439 106.919 266.085 106.919V104.919ZM256.05 98.0892L234.783 35.9562L232.89 36.6038L254.157 98.7368L256.05 98.0892ZM233.837 35.28H233.559V37.28H233.837V35.28ZM232.559 36.28V95.494H234.559V36.28H232.559ZM232.559 95.494C232.559 98.5656 231.645 101.088 230.057 102.83C228.479 104.562 226.153 105.614 223.134 105.614V107.614C226.647 107.614 229.534 106.373 231.535 104.178C233.526 101.993 234.559 98.9554 234.559 95.494H232.559ZM223.134 105.614C220.114 105.614 217.789 104.562 216.21 102.83C214.622 101.088 213.709 98.5656 213.709 95.494H211.709C211.709 98.9554 212.741 101.993 214.732 104.178C216.733 106.373 219.62 107.614 223.134 107.614V105.614ZM213.709 95.494V17.376H211.709V95.494H213.709ZM213.709 17.376C213.709 12.3346 215.05 8.78038 217.465 6.47547C219.888 4.16246 223.559 2.94699 228.555 2.94699V0.946992C223.264 0.946992 219.012 2.23353 216.084 5.02876C213.147 7.83211 211.709 11.9924 211.709 17.376H213.709ZM228.555 2.94699C232.835 2.94699 236.234 3.66276 238.877 5.34478C241.499 7.01359 243.5 9.71177 244.837 13.9256L246.744 13.3204C245.301 8.77722 243.062 5.6374 239.951 3.65746C236.86 1.69073 233.031 0.946992 228.555 0.946992V2.94699ZM244.837 13.9242L264.992 77.7252L266.899 77.1228L246.744 13.3218L244.837 13.9242ZM265.946 78.424H266.224V76.424H265.946V78.424ZM370.401 65.748H371.401V65.4404L371.228 65.186L370.401 65.748ZM338.292 18.488L337.46 19.0427L337.465 19.05L338.292 18.488ZM340.794 4.032L341.36 4.85605L341.364 4.85337L340.794 4.032ZM356.362 6.812L355.53 7.36674L355.537 7.37723L356.362 6.812ZM382.077 44.342L381.252 44.9072L382.077 46.1112L382.902 44.9072L382.077 44.342ZM407.792 6.812L408.617 7.37727L408.624 7.3667L407.792 6.812ZM423.36 4.032L422.789 4.85338L422.793 4.85604L423.36 4.032ZM425.862 18.488L426.689 19.05L426.694 19.0427L425.862 18.488ZM393.753 65.748L392.926 65.186L392.753 65.4404V65.748H393.753ZM382.077 105.614C378.843 105.614 376.189 104.487 374.346 102.612C372.5 100.735 371.401 98.0429 371.401 94.799H369.401C369.401 98.5051 370.665 101.721 372.92 104.014C375.176 106.309 378.361 107.614 382.077 107.614V105.614ZM371.401 94.799V65.748H369.401V94.799H371.401ZM371.228 65.186L339.119 17.926L337.465 19.05L369.574 66.31L371.228 65.186ZM339.124 17.9333C335.825 12.9843 337.346 7.61611 341.36 4.85604L340.227 3.20796C335.346 6.56388 333.531 13.1497 337.46 19.0427L339.124 17.9333ZM341.364 4.85337C345.954 1.66595 352.256 2.45633 355.53 7.3667L357.194 6.2573C353.239 0.325672 345.642 -0.551962 340.223 3.21063L341.364 4.85337ZM355.537 7.37723L381.252 44.9072L382.902 43.7768L357.187 6.24676L355.537 7.37723ZM382.902 44.9072L408.617 7.37723L406.967 6.24676L381.252 43.7768L382.902 44.9072ZM408.624 7.3667C411.897 2.45633 418.2 1.66595 422.789 4.85337L423.93 3.21063C418.512 -0.551962 410.914 0.325672 406.96 6.25729L408.624 7.3667ZM422.793 4.85604C426.808 7.61611 428.329 12.9843 425.03 17.9333L426.694 19.0427C430.623 13.1497 428.808 6.56388 423.926 3.20796L422.793 4.85604ZM425.035 17.926L392.926 65.186L394.58 66.31L426.689 19.05L425.035 17.926ZM392.753 65.748V94.799H394.753V65.748H392.753ZM392.753 94.799C392.753 98.0429 391.654 100.735 389.808 102.612C387.964 104.487 385.311 105.614 382.077 105.614V107.614C385.793 107.614 388.977 106.309 391.234 104.014C393.489 101.721 394.753 98.5051 394.753 94.799H392.753Z" fill="#5690FF"/>
</svg>
