<svg width="36" height="39" viewBox="0 0 36 39" fill="none" xmlns="http://www.w3.org/2000/svg">
<g filter="url(#filter0_d_55_1612)">
<path d="M20.65 30.008H15.26C9.05001 30.008 4.01001 24.968 4.01001 18.758V13.498H31.9V18.758C31.9 24.968 26.86 30.008 20.65 30.008Z" fill="url(#paint0_linear_55_1612)"/>
<path d="M20.65 30.008H15.26C9.05001 30.008 4.01001 24.968 4.01001 18.758V13.498H31.9V18.758C31.9 24.968 26.86 30.008 20.65 30.008Z" fill="url(#paint1_linear_55_1612)"/>
<path d="M23.92 5.125H11.98C7.57 5.125 4 9.088 4 13.498C4 17.908 7.57 21.478 11.98 21.478H23.91C28.32 21.478 31.89 17.908 31.89 13.498C31.9 9.098 28.922 5.125 23.92 5.125Z" fill="url(#paint2_linear_55_1612)"/>
<g filter="url(#filter1_f_55_1612)">
<path d="M28.539 11.36C28.269 10.33 27.496 9.60398 26.976 8.70398C26.976 8.70398 10.396 3.51898 7.50001 8.53098C6.98001 9.43098 5.93101 10.515 5.71901 11.813C5.01601 16.109 7.67701 17.068 9.17901 18.25C10.789 19.516 13.382 19.234 17.311 19.234C20.359 19.234 23.497 19.33 25.586 18.25C27.776 17.118 29.246 14.055 28.539 11.36Z" fill="#642A2B"/>
</g>
<path d="M29.188 11.031C28.918 10.001 28.145 9.275 27.625 8.375C27.095 7.465 26.677 6.193 25.937 5.453C25.197 4.713 24.389 4.358 23.469 3.828C22.569 3.308 22.046 2.629 21.016 2.359C19.864 2.057 18.955 2.359 17.875 2.359C16.795 2.359 16.312 1.937 14.765 2.453C13.755 2.79 13.494 3.308 12.594 3.828C11.694 4.368 10.75 4.578 10.031 5.484C9.36301 6.327 8.85801 7.439 8.32801 8.359C7.80801 9.259 6.99401 9.889 6.78101 11.188C6.07801 15.484 8.32501 17.428 9.82801 18.609C11.438 19.875 14.031 19.594 17.96 19.594C21.008 19.594 24.146 19.689 26.234 18.609C28.425 17.477 29.895 13.726 29.188 11.031Z" fill="#FAF8FC"/>
<path d="M29.188 11.031C28.918 10.001 28.145 9.275 27.625 8.375C27.095 7.465 26.677 6.193 25.937 5.453C25.197 4.713 24.389 4.358 23.469 3.828C22.569 3.308 22.046 2.629 21.016 2.359C19.864 2.057 18.955 2.359 17.875 2.359C16.795 2.359 16.312 1.937 14.765 2.453C13.755 2.79 13.494 3.308 12.594 3.828C11.694 4.368 10.75 4.578 10.031 5.484C9.36301 6.327 8.85801 7.439 8.32801 8.359C7.80801 9.259 6.99401 9.889 6.78101 11.188C6.07801 15.484 8.32501 17.428 9.82801 18.609C11.438 19.875 14.031 19.594 17.96 19.594C21.008 19.594 24.146 19.689 26.234 18.609C28.425 17.477 29.895 13.726 29.188 11.031Z" fill="url(#paint3_radial_55_1612)"/>
<path d="M29.188 11.031C28.918 10.001 28.145 9.275 27.625 8.375C27.095 7.465 26.677 6.193 25.937 5.453C25.197 4.713 24.389 4.358 23.469 3.828C22.569 3.308 22.046 2.629 21.016 2.359C19.864 2.057 18.955 2.359 17.875 2.359C16.795 2.359 16.312 1.937 14.765 2.453C13.755 2.79 13.494 3.308 12.594 3.828C11.694 4.368 10.75 4.578 10.031 5.484C9.36301 6.327 8.85801 7.439 8.32801 8.359C7.80801 9.259 6.99401 9.889 6.78101 11.188C6.07801 15.484 8.32501 17.428 9.82801 18.609C11.438 19.875 14.031 19.594 17.96 19.594C21.008 19.594 24.146 19.689 26.234 18.609C28.425 17.477 29.895 13.726 29.188 11.031Z" fill="url(#paint4_radial_55_1612)"/>
<path d="M29.188 11.031C28.918 10.001 28.145 9.275 27.625 8.375C27.095 7.465 26.677 6.193 25.937 5.453C25.197 4.713 24.389 4.358 23.469 3.828C22.569 3.308 22.046 2.629 21.016 2.359C19.864 2.057 18.955 2.359 17.875 2.359C16.795 2.359 16.312 1.937 14.765 2.453C13.755 2.79 13.494 3.308 12.594 3.828C11.694 4.368 10.75 4.578 10.031 5.484C9.36301 6.327 8.85801 7.439 8.32801 8.359C7.80801 9.259 6.99401 9.889 6.78101 11.188C6.07801 15.484 8.32501 17.428 9.82801 18.609C11.438 19.875 14.031 19.594 17.96 19.594C21.008 19.594 24.146 19.689 26.234 18.609C28.425 17.477 29.895 13.726 29.188 11.031Z" fill="url(#paint5_radial_55_1612)"/>
<path d="M29.188 11.031C28.918 10.001 28.145 9.275 27.625 8.375C27.095 7.465 26.677 6.193 25.937 5.453C25.197 4.713 24.389 4.358 23.469 3.828C22.569 3.308 22.046 2.629 21.016 2.359C19.864 2.057 18.955 2.359 17.875 2.359C16.795 2.359 16.312 1.937 14.765 2.453C13.755 2.79 13.494 3.308 12.594 3.828C11.694 4.368 10.75 4.578 10.031 5.484C9.36301 6.327 8.85801 7.439 8.32801 8.359C7.80801 9.259 6.99401 9.889 6.78101 11.188C6.07801 15.484 8.32501 17.428 9.82801 18.609C11.438 19.875 14.031 19.594 17.96 19.594C21.008 19.594 24.146 19.689 26.234 18.609C28.425 17.477 29.895 13.726 29.188 11.031Z" fill="url(#paint6_radial_55_1612)"/>
<path d="M14.15 10.908L14.92 12.638C15.09 13.018 15.54 13.188 15.92 13.018C16.3 12.848 16.47 12.398 16.3 12.018L15.53 10.288C15.4474 10.1053 15.2959 9.96272 15.1085 9.89151C14.921 9.82029 14.713 9.82622 14.53 9.90801C14.15 10.078 13.98 10.518 14.15 10.908Z" fill="#C5BFCF"/>
<path d="M11.58 15.138L11.23 16.998C11.15 17.408 11.42 17.808 11.84 17.888C12.25 17.968 12.65 17.698 12.73 17.278L13.08 15.418C13.0988 15.3195 13.0979 15.2182 13.0774 15.12C13.0568 15.0218 13.017 14.9287 12.9603 14.846C12.9036 14.7632 12.8311 14.6925 12.747 14.638C12.6628 14.5834 12.5687 14.546 12.47 14.528C12.3714 14.5078 12.2697 14.5077 12.171 14.5276C12.0723 14.5476 11.9786 14.5872 11.8955 14.6441C11.8125 14.701 11.7417 14.7741 11.6875 14.859C11.6333 14.9438 11.5968 15.0387 11.58 15.138Z" fill="#BAB1C8"/>
<path d="M9.82 11.458L8.14 12.338C8.05146 12.3834 7.97282 12.4459 7.90868 12.5219C7.84454 12.598 7.79617 12.686 7.76638 12.781C7.7366 12.8759 7.72601 12.9758 7.73521 13.0749C7.74442 13.1739 7.77324 13.2702 7.82 13.358C8.01 13.728 8.47 13.878 8.84 13.678L10.52 12.798C10.6085 12.7526 10.6872 12.6901 10.7513 12.614C10.8155 12.538 10.8638 12.4499 10.8936 12.355C10.9234 12.2601 10.934 12.1602 10.9248 12.0611C10.9156 11.962 10.8868 11.8658 10.84 11.778C10.7468 11.6007 10.5871 11.4675 10.396 11.4076C10.2049 11.3476 9.9978 11.3657 9.82 11.458Z" fill="url(#paint7_linear_55_1612)"/>
<path d="M21.75 6.068L21.4 7.928C21.32 8.338 21.59 8.738 22.01 8.818C22.42 8.898 22.82 8.628 22.9 8.208L23.25 6.348C23.2688 6.24947 23.2679 6.1482 23.2474 6.05002C23.2268 5.95184 23.1871 5.8587 23.1304 5.77597C23.0736 5.69323 23.0011 5.62254 22.917 5.56797C22.8328 5.51339 22.7387 5.47602 22.64 5.458C22.23 5.388 21.83 5.658 21.75 6.068Z" fill="#E0DDE2"/>
<path d="M11.04 6.36798L9.90999 7.88798C9.65999 8.22798 9.72999 8.69798 10.07 8.94798C10.41 9.19798 10.88 9.12798 11.13 8.78798L12.26 7.26798C12.51 6.92798 12.44 6.45798 12.1 6.20798C12.02 6.1485 11.9291 6.10544 11.8324 6.08127C11.7357 6.05711 11.6352 6.05233 11.5367 6.0672C11.4381 6.08208 11.3435 6.11631 11.2583 6.16794C11.173 6.21956 11.0988 6.28755 11.04 6.36798Z" fill="#A6A2A9"/>
<path d="M18.06 15.048L16.93 16.568C16.68 16.908 16.75 17.378 17.09 17.628C17.43 17.878 17.9 17.808 18.15 17.468L19.28 15.948C19.53 15.608 19.46 15.138 19.12 14.888C18.957 14.7722 18.7554 14.7242 18.5577 14.754C18.36 14.7839 18.1816 14.8892 18.06 15.048Z" fill="#C7BFD5"/>
<path d="M25.52 11.008L26.75 12.448C26.8828 12.5919 27.066 12.679 27.2614 12.6912C27.4569 12.7033 27.6495 12.6396 27.7991 12.5132C27.9486 12.3868 28.0437 12.2076 28.0643 12.0129C28.085 11.8181 28.0297 11.6229 27.91 11.468L26.68 10.028C26.5472 9.88406 26.364 9.79694 26.1685 9.78479C25.9731 9.77264 25.7805 9.8364 25.6309 9.96277C25.4813 10.0891 25.3863 10.2684 25.3656 10.4631C25.345 10.6578 25.4003 10.853 25.52 11.008Z" fill="#EDEBEF"/>
<path d="M18 6.11799L17.05 4.47799C16.9488 4.30344 16.7826 4.17602 16.5877 4.12356C16.3929 4.0711 16.1852 4.09786 16.01 4.19799C15.65 4.40799 15.52 4.86799 15.73 5.23799L16.68 6.87799C16.89 7.23799 17.35 7.36799 17.72 7.15799C18.09 6.94799 18.21 6.48799 18 6.11799Z" fill="#CCCACF"/>
<path d="M26.04 16.548L25.09 14.908C24.9888 14.7335 24.8226 14.606 24.6277 14.5536C24.4329 14.5011 24.2252 14.5279 24.05 14.628C23.69 14.838 23.56 15.298 23.77 15.668L24.72 17.308C24.93 17.668 25.39 17.798 25.76 17.588C26.12 17.378 26.25 16.918 26.04 16.548Z" fill="#DAD4E2"/>
<path d="M22.22 11.298L20.48 10.548C20.3881 10.5082 20.2893 10.4871 20.1892 10.4857C20.0891 10.4843 19.9897 10.5027 19.8967 10.5399C19.8038 10.5771 19.7191 10.6323 19.6476 10.7023C19.5761 10.7723 19.5191 10.8558 19.48 10.948C19.31 11.328 19.49 11.778 19.88 11.948L21.62 12.698C22 12.868 22.45 12.688 22.62 12.298C22.6975 12.1121 22.6991 11.9033 22.6243 11.7163C22.5495 11.5293 22.4043 11.3791 22.22 11.298Z" fill="#D5D0DD"/>
</g>
<defs>
<filter id="filter0_d_55_1612" x="-2" y="0" width="40" height="40" filterUnits="userSpaceOnUse" color-interpolation-filters="sRGB">
<feFlood flood-opacity="0" result="BackgroundImageFix"/>
<feColorMatrix in="SourceAlpha" type="matrix" values="0 0 0 0 0 0 0 0 0 0 0 0 0 0 0 0 0 0 127 0" result="hardAlpha"/>
<feOffset dy="4"/>
<feGaussianBlur stdDeviation="2"/>
<feComposite in2="hardAlpha" operator="out"/>
<feColorMatrix type="matrix" values="0 0 0 0 0 0 0 0 0 0 0 0 0 0 0 0 0 0 0.25 0"/>
<feBlend mode="normal" in2="BackgroundImageFix" result="effect1_dropShadow_55_1612"/>
<feBlend mode="normal" in="SourceGraphic" in2="effect1_dropShadow_55_1612" result="shape"/>
</filter>
<filter id="filter1_f_55_1612" x="3.60303" y="4.34741" width="27.115" height="16.9134" filterUnits="userSpaceOnUse" color-interpolation-filters="sRGB">
<feFlood flood-opacity="0" result="BackgroundImageFix"/>
<feBlend mode="normal" in="SourceGraphic" in2="BackgroundImageFix" result="shape"/>
<feGaussianBlur stdDeviation="1" result="effect1_foregroundBlur_55_1612"/>
</filter>
<linearGradient id="paint0_linear_55_1612" x1="31.9" y1="22.313" x2="4.62501" y2="22.313" gradientUnits="userSpaceOnUse">
<stop stop-color="#FF3F48"/>
<stop offset="0.136" stop-color="#FC2D53"/>
<stop offset="0.313" stop-color="#D42C62"/>
<stop offset="0.51" stop-color="#D82D67"/>
<stop offset="0.755" stop-color="#C52E62"/>
<stop offset="1" stop-color="#984651"/>
</linearGradient>
<linearGradient id="paint1_linear_55_1612" x1="15.375" y1="31.375" x2="15.375" y2="26.125" gradientUnits="userSpaceOnUse">
<stop stop-color="#A2336C"/>
<stop offset="1" stop-color="#A82B66" stop-opacity="0"/>
</linearGradient>
<linearGradient id="paint2_linear_55_1612" x1="29.625" y1="5.938" x2="6.875" y2="17.313" gradientUnits="userSpaceOnUse">
<stop stop-color="#EB3334"/>
<stop offset="1" stop-color="#B22B4D"/>
</linearGradient>
<radialGradient id="paint3_radial_55_1612" cx="0" cy="0" r="1" gradientUnits="userSpaceOnUse" gradientTransform="translate(10.375 24.125) rotate(-46.58) scale(25.6424 26.1468)">
<stop offset="0.475" stop-color="#E0D4EF"/>
<stop offset="0.909" stop-color="#FCFBFD" stop-opacity="0"/>
</radialGradient>
<radialGradient id="paint4_radial_55_1612" cx="0" cy="0" r="1" gradientUnits="userSpaceOnUse" gradientTransform="translate(22.875 13.438) rotate(109.194) scale(19.3904 23.13)">
<stop offset="0.395" stop-color="#D1CDD5" stop-opacity="0"/>
<stop offset="0.66" stop-color="#9B96A1"/>
</radialGradient>
<radialGradient id="paint5_radial_55_1612" cx="0" cy="0" r="1" gradientUnits="userSpaceOnUse" gradientTransform="translate(16.75 4.438) rotate(91.302) scale(2.75071 3.21089)">
<stop stop-color="#E0DFE0"/>
<stop offset="1" stop-color="#F9F6FC" stop-opacity="0"/>
</radialGradient>
<radialGradient id="paint6_radial_55_1612" cx="0" cy="0" r="1" gradientUnits="userSpaceOnUse" gradientTransform="translate(21.563 4.813) rotate(150.751) scale(1.79082 3.29406)">
<stop stop-color="#F6F5F6"/>
<stop offset="1" stop-color="#F1EFF2" stop-opacity="0"/>
</radialGradient>
<linearGradient id="paint7_linear_55_1612" x1="8.125" y1="13.25" x2="10.929" y2="11.373" gradientUnits="userSpaceOnUse">
<stop stop-color="#807985"/>
<stop offset="1" stop-color="#A6A0AE"/>
</linearGradient>
</defs>
</svg>
