<svg width="32" height="32" viewBox="0 0 32 32" fill="none" xmlns="http://www.w3.org/2000/svg">
<g filter="url(#filter0_i_55_1611)">
<path d="M19.235 8.23001C16.822 7.38001 13.719 7.87501 12.469 8.23001C12.2126 8.12176 11.9894 7.94764 11.8221 7.7253C11.6547 7.50296 11.5491 7.24032 11.516 6.96401C11.391 5.99401 10.75 2.83901 15.906 2.66701C20.032 2.52901 21.427 4.71401 21.61 5.82301L19.235 8.23001Z" fill="url(#paint0_radial_55_1611)"/>
<path d="M19.235 8.23001C16.822 7.38001 13.719 7.87501 12.469 8.23001C12.2126 8.12176 11.9894 7.94764 11.8221 7.7253C11.6547 7.50296 11.5491 7.24032 11.516 6.96401C11.391 5.99401 10.75 2.83901 15.906 2.66701C20.032 2.52901 21.427 4.71401 21.61 5.82301L19.235 8.23001Z" fill="url(#paint1_radial_55_1611)"/>
</g>
<g filter="url(#filter1_i_55_1611)">
<path d="M19.498 14.505C22.46 17.308 26.402 20.99 29.89 24.09C29.9391 24.1336 29.979 24.1864 30.0076 24.2455C30.0362 24.3045 30.0528 24.3687 30.0566 24.4342C30.0603 24.4997 30.051 24.5653 30.0293 24.6272C30.0076 24.6891 29.9738 24.7462 29.93 24.795C28.3904 26.5263 26.8184 28.2286 25.215 29.901C25.1266 29.9939 25.0054 30.0486 24.8773 30.0534C24.7492 30.0583 24.6242 30.0129 24.529 29.927C21.544 27.23 17.46 23.115 14.082 19.62L19.498 14.505Z" fill="#FFC444"/>
<path d="M19.498 14.505C22.46 17.308 26.402 20.99 29.89 24.09C29.9391 24.1336 29.979 24.1864 30.0076 24.2455C30.0362 24.3045 30.0528 24.3687 30.0566 24.4342C30.0603 24.4997 30.051 24.5653 30.0293 24.6272C30.0076 24.6891 29.9738 24.7462 29.93 24.795C28.3904 26.5263 26.8184 28.2286 25.215 29.901C25.1266 29.9939 25.0054 30.0486 24.8773 30.0534C24.7492 30.0583 24.6242 30.0129 24.529 29.927C21.544 27.23 17.46 23.115 14.082 19.62L19.498 14.505Z" fill="url(#paint2_linear_55_1611)"/>
</g>
<path d="M19.498 14.505C22.46 17.308 26.402 20.99 29.89 24.09C29.9391 24.1336 29.979 24.1864 30.0076 24.2455C30.0362 24.3045 30.0528 24.3687 30.0566 24.4342C30.0603 24.4997 30.051 24.5653 30.0293 24.6272C30.0076 24.6891 29.9738 24.7462 29.93 24.795C28.3904 26.5263 26.8184 28.2286 25.215 29.901C25.1266 29.9939 25.0054 30.0486 24.8773 30.0534C24.7492 30.0583 24.6242 30.0129 24.529 29.927C21.544 27.23 17.46 23.115 14.082 19.62L19.498 14.505Z" fill="url(#paint3_linear_55_1611)"/>
<path d="M19.498 14.505C22.46 17.308 26.402 20.99 29.89 24.09C29.9391 24.1336 29.979 24.1864 30.0076 24.2455C30.0362 24.3045 30.0528 24.3687 30.0566 24.4342C30.0603 24.4997 30.051 24.5653 30.0293 24.6272C30.0076 24.6891 29.9738 24.7462 29.93 24.795C28.3904 26.5263 26.8184 28.2286 25.215 29.901C25.1266 29.9939 25.0054 30.0486 24.8773 30.0534C24.7492 30.0583 24.6242 30.0129 24.529 29.927C21.544 27.23 17.46 23.115 14.082 19.62L19.498 14.505Z" fill="url(#paint4_linear_55_1611)"/>
<path d="M18.483 13.543C17.2937 12.4132 16.1087 11.2788 14.928 10.14C13.728 8.965 11.609 6.745 11.89 5.245C12.302 3.045 14.903 3.057 16.113 3.063H16.273V1.91C14.313 1.91 12.641 2.193 10.755 3.567C7.68 5.807 5.553 10.625 10.203 15.559C11.055 16.463 12.093 17.554 13.237 18.745C14.975 17.02 16.783 15.226 18.483 13.543Z" fill="url(#paint5_radial_55_1611)"/>
<path d="M18.483 13.543C17.2937 12.4132 16.1087 11.2788 14.928 10.14C13.728 8.965 11.609 6.745 11.89 5.245C12.302 3.045 14.903 3.057 16.113 3.063H16.273V1.91C14.313 1.91 12.641 2.193 10.755 3.567C7.68 5.807 5.553 10.625 10.203 15.559C11.055 16.463 12.093 17.554 13.237 18.745C14.975 17.02 16.783 15.226 18.483 13.543Z" fill="url(#paint6_linear_55_1611)"/>
<path d="M18.483 13.543C17.2937 12.4132 16.1087 11.2788 14.928 10.14C13.728 8.965 11.609 6.745 11.89 5.245C12.302 3.045 14.903 3.057 16.113 3.063H16.273V1.91C14.313 1.91 12.641 2.193 10.755 3.567C7.68 5.807 5.553 10.625 10.203 15.559C11.055 16.463 12.093 17.554 13.237 18.745C14.975 17.02 16.783 15.226 18.483 13.543Z" fill="url(#paint7_linear_55_1611)"/>
<path d="M18.483 13.543C17.2937 12.4132 16.1087 11.2788 14.928 10.14C13.728 8.965 11.609 6.745 11.89 5.245C12.302 3.045 14.903 3.057 16.113 3.063H16.273V1.91C14.313 1.91 12.641 2.193 10.755 3.567C7.68 5.807 5.553 10.625 10.203 15.559C11.055 16.463 12.093 17.554 13.237 18.745C14.975 17.02 16.783 15.226 18.483 13.543Z" fill="url(#paint8_radial_55_1611)"/>
<g filter="url(#filter2_i_55_1611)">
<path d="M16.93 10.064L1.99 23.816C1.89311 23.905 1.83521 24.0286 1.82885 24.16C1.82248 24.2914 1.86817 24.42 1.956 24.518L6.619 29.704C6.664 29.754 6.71863 29.7944 6.77961 29.8227C6.84059 29.8511 6.90667 29.8669 6.97389 29.8691C7.04111 29.8714 7.1081 29.86 7.17083 29.8358C7.23356 29.8115 7.29076 29.7749 7.339 29.728C11.377 25.803 18.263 19.212 21.827 15.554C26.457 10.804 24.351 5.802 21.276 3.562C19.389 2.189 17.896 1.909 16.274 1.909V3.059C17.396 3.059 20.092 3.599 20.414 5.144C20.716 6.589 18.131 8.888 16.932 10.064H16.93Z" fill="#FFD24B"/>
<path d="M16.93 10.064L1.99 23.816C1.89311 23.905 1.83521 24.0286 1.82885 24.16C1.82248 24.2914 1.86817 24.42 1.956 24.518L6.619 29.704C6.664 29.754 6.71863 29.7944 6.77961 29.8227C6.84059 29.8511 6.90667 29.8669 6.97389 29.8691C7.04111 29.8714 7.1081 29.86 7.17083 29.8358C7.23356 29.8115 7.29076 29.7749 7.339 29.728C11.377 25.803 18.263 19.212 21.827 15.554C26.457 10.804 24.351 5.802 21.276 3.562C19.389 2.189 17.896 1.909 16.274 1.909V3.059C17.396 3.059 20.092 3.599 20.414 5.144C20.716 6.589 18.131 8.888 16.932 10.064H16.93Z" fill="url(#paint9_radial_55_1611)"/>
<path d="M16.93 10.064L1.99 23.816C1.89311 23.905 1.83521 24.0286 1.82885 24.16C1.82248 24.2914 1.86817 24.42 1.956 24.518L6.619 29.704C6.664 29.754 6.71863 29.7944 6.77961 29.8227C6.84059 29.8511 6.90667 29.8669 6.97389 29.8691C7.04111 29.8714 7.1081 29.86 7.17083 29.8358C7.23356 29.8115 7.29076 29.7749 7.339 29.728C11.377 25.803 18.263 19.212 21.827 15.554C26.457 10.804 24.351 5.802 21.276 3.562C19.389 2.189 17.896 1.909 16.274 1.909V3.059C17.396 3.059 20.092 3.599 20.414 5.144C20.716 6.589 18.131 8.888 16.932 10.064H16.93Z" fill="url(#paint10_linear_55_1611)"/>
</g>
<path d="M16.93 10.064L1.99 23.816C1.89311 23.905 1.83521 24.0286 1.82885 24.16C1.82248 24.2914 1.86817 24.42 1.956 24.518L6.619 29.704C6.664 29.754 6.71863 29.7944 6.77961 29.8227C6.84059 29.8511 6.90667 29.8669 6.97389 29.8691C7.04111 29.8714 7.1081 29.86 7.17083 29.8358C7.23356 29.8115 7.29076 29.7749 7.339 29.728C11.377 25.803 18.263 19.212 21.827 15.554C26.457 10.804 24.351 5.802 21.276 3.562C19.389 2.189 17.896 1.909 16.274 1.909V3.059C17.396 3.059 20.092 3.599 20.414 5.144C20.716 6.589 18.131 8.888 16.932 10.064H16.93Z" fill="url(#paint11_radial_55_1611)"/>
<path d="M16.93 10.064L1.99 23.816C1.89311 23.905 1.83521 24.0286 1.82885 24.16C1.82248 24.2914 1.86817 24.42 1.956 24.518L6.619 29.704C6.664 29.754 6.71863 29.7944 6.77961 29.8227C6.84059 29.8511 6.90667 29.8669 6.97389 29.8691C7.04111 29.8714 7.1081 29.86 7.17083 29.8358C7.23356 29.8115 7.29076 29.7749 7.339 29.728C11.377 25.803 18.263 19.212 21.827 15.554C26.457 10.804 24.351 5.802 21.276 3.562C19.389 2.189 17.896 1.909 16.274 1.909V3.059C17.396 3.059 20.092 3.599 20.414 5.144C20.716 6.589 18.131 8.888 16.932 10.064H16.93Z" fill="url(#paint12_radial_55_1611)"/>
<g filter="url(#filter3_f_55_1611)">
<path d="M16.656 2.635C15.656 2.479 12.655 2.687 11.774 3.963C10.684 5.54 11.254 7.304 13.671 9.855" stroke="url(#paint13_radial_55_1611)" stroke-width="0.5" stroke-linecap="round"/>
</g>
<g filter="url(#filter4_f_55_1611)">
<path d="M20.82 3.93198C20.031 2.95998 18.544 2.55498 18.007 2.44598L17.768 3.08098C18.256 3.18698 19.43 3.54798 20.062 4.24498C21.046 5.32898 20.129 6.80398 19.648 7.41698C20.883 6.34698 21.63 4.92998 20.82 3.93198Z" fill="url(#paint14_linear_55_1611)"/>
</g>
<defs>
<filter id="filter0_i_55_1611" x="11.424" y="2.51077" width="10.186" height="5.71924" filterUnits="userSpaceOnUse" color-interpolation-filters="sRGB">
<feFlood flood-opacity="0" result="BackgroundImageFix"/>
<feBlend mode="normal" in="SourceGraphic" in2="BackgroundImageFix" result="shape"/>
<feColorMatrix in="SourceAlpha" type="matrix" values="0 0 0 0 0 0 0 0 0 0 0 0 0 0 0 0 0 0 127 0" result="hardAlpha"/>
<feOffset dy="-0.15"/>
<feGaussianBlur stdDeviation="0.125"/>
<feComposite in2="hardAlpha" operator="arithmetic" k2="-1" k3="1"/>
<feColorMatrix type="matrix" values="0 0 0 0 0.847059 0 0 0 0 0.52549 0 0 0 0 0.4 0 0 0 1 0"/>
<feBlend mode="normal" in2="shape" result="effect1_innerShadow_55_1611"/>
</filter>
<filter id="filter1_i_55_1611" x="14.082" y="14.505" width="16.3754" height="15.6488" filterUnits="userSpaceOnUse" color-interpolation-filters="sRGB">
<feFlood flood-opacity="0" result="BackgroundImageFix"/>
<feBlend mode="normal" in="SourceGraphic" in2="BackgroundImageFix" result="shape"/>
<feColorMatrix in="SourceAlpha" type="matrix" values="0 0 0 0 0 0 0 0 0 0 0 0 0 0 0 0 0 0 127 0" result="hardAlpha"/>
<feOffset dx="0.4" dy="0.1"/>
<feGaussianBlur stdDeviation="0.375"/>
<feComposite in2="hardAlpha" operator="arithmetic" k2="-1" k3="1"/>
<feColorMatrix type="matrix" values="0 0 0 0 0.898039 0 0 0 0 0.521569 0 0 0 0 0.352941 0 0 0 1 0"/>
<feBlend mode="normal" in2="shape" result="effect1_innerShadow_55_1611"/>
</filter>
<filter id="filter2_i_55_1611" x="1.82826" y="1.709" width="22.8951" height="28.1604" filterUnits="userSpaceOnUse" color-interpolation-filters="sRGB">
<feFlood flood-opacity="0" result="BackgroundImageFix"/>
<feBlend mode="normal" in="SourceGraphic" in2="BackgroundImageFix" result="shape"/>
<feColorMatrix in="SourceAlpha" type="matrix" values="0 0 0 0 0 0 0 0 0 0 0 0 0 0 0 0 0 0 127 0" result="hardAlpha"/>
<feOffset dx="0.2" dy="-0.2"/>
<feGaussianBlur stdDeviation="0.25"/>
<feComposite in2="hardAlpha" operator="arithmetic" k2="-1" k3="1"/>
<feColorMatrix type="matrix" values="0 0 0 0 0.866667 0 0 0 0 0.517647 0 0 0 0 0.309804 0 0 0 1 0"/>
<feBlend mode="normal" in2="shape" result="effect1_innerShadow_55_1611"/>
</filter>
<filter id="filter3_f_55_1611" x="10.4937" y="1.84024" width="6.91237" height="8.76477" filterUnits="userSpaceOnUse" color-interpolation-filters="sRGB">
<feFlood flood-opacity="0" result="BackgroundImageFix"/>
<feBlend mode="normal" in="SourceGraphic" in2="BackgroundImageFix" result="shape"/>
<feGaussianBlur stdDeviation="0.25" result="effect1_foregroundBlur_55_1611"/>
</filter>
<filter id="filter4_f_55_1611" x="17.468" y="2.14598" width="3.98995" height="5.57101" filterUnits="userSpaceOnUse" color-interpolation-filters="sRGB">
<feFlood flood-opacity="0" result="BackgroundImageFix"/>
<feBlend mode="normal" in="SourceGraphic" in2="BackgroundImageFix" result="shape"/>
<feGaussianBlur stdDeviation="0.15" result="effect1_foregroundBlur_55_1611"/>
</filter>
<radialGradient id="paint0_radial_55_1611" cx="0" cy="0" r="1" gradientUnits="userSpaceOnUse" gradientTransform="translate(11.424 6.65001) rotate(0.300398) scale(8.61353 4.38891)">
<stop stop-color="#FAAE36"/>
<stop offset="1" stop-color="#CF7C39"/>
</radialGradient>
<radialGradient id="paint1_radial_55_1611" cx="0" cy="0" r="1" gradientUnits="userSpaceOnUse" gradientTransform="translate(16.2 8.63601) rotate(-90) scale(5.55422 9.43767)">
<stop offset="0.801" stop-color="#D67B44" stop-opacity="0"/>
<stop offset="1" stop-color="#D67B44"/>
</radialGradient>
<linearGradient id="paint2_linear_55_1611" x1="19.812" y1="26.022" x2="24.237" y2="20.919" gradientUnits="userSpaceOnUse">
<stop stop-color="#F69C3E"/>
<stop offset="1" stop-color="#F69C3E" stop-opacity="0"/>
</linearGradient>
<linearGradient id="paint3_linear_55_1611" x1="26.179" y1="20.242" x2="24.643" y2="21.957" gradientUnits="userSpaceOnUse">
<stop offset="0.068" stop-color="#FFFF5D"/>
<stop offset="1" stop-color="#FFE151" stop-opacity="0"/>
</linearGradient>
<linearGradient id="paint4_linear_55_1611" x1="17.825" y1="18.277" x2="18.886" y2="19.203" gradientUnits="userSpaceOnUse">
<stop stop-color="#F79E36"/>
<stop offset="1" stop-color="#F79E36" stop-opacity="0"/>
</linearGradient>
<radialGradient id="paint5_radial_55_1611" cx="0" cy="0" r="1" gradientUnits="userSpaceOnUse" gradientTransform="translate(16.4246 7.14558) rotate(112.81) scale(10.4833 9.59074)">
<stop offset="0.357" stop-color="#EFBC2A"/>
<stop offset="1" stop-color="#AD9347"/>
</radialGradient>
<linearGradient id="paint6_linear_55_1611" x1="16.651" y1="2.856" x2="12.632" y2="5.34" gradientUnits="userSpaceOnUse">
<stop stop-color="#FFDC38"/>
<stop offset="1" stop-color="#FFDC38" stop-opacity="0"/>
</linearGradient>
<linearGradient id="paint7_linear_55_1611" x1="14.37" y1="13.581" x2="12.813" y2="12.339" gradientUnits="userSpaceOnUse">
<stop stop-color="#C6942E"/>
<stop offset="0.38" stop-color="#C6942E" stop-opacity="0.796"/>
<stop offset="1" stop-color="#C6942E" stop-opacity="0"/>
</linearGradient>
<radialGradient id="paint8_radial_55_1611" cx="0" cy="0" r="1" gradientUnits="userSpaceOnUse" gradientTransform="translate(14.077 4.888) rotate(-127.154) scale(3.73836 5.39913)">
<stop stop-color="#FFC42B"/>
<stop offset="1" stop-color="#FFC42B" stop-opacity="0"/>
</radialGradient>
<radialGradient id="paint9_radial_55_1611" cx="0" cy="0" r="1" gradientUnits="userSpaceOnUse" gradientTransform="translate(24.063 8.6) rotate(106.407) scale(11.7275 7.23391)">
<stop stop-color="#FFFF68"/>
<stop offset="1" stop-color="#FFFF68" stop-opacity="0"/>
</radialGradient>
<linearGradient id="paint10_linear_55_1611" x1="2.378" y1="30.091" x2="6.12" y2="26.664" gradientUnits="userSpaceOnUse">
<stop stop-color="#EAA138"/>
<stop offset="1" stop-color="#EAA138" stop-opacity="0"/>
</linearGradient>
<radialGradient id="paint11_radial_55_1611" cx="0" cy="0" r="1" gradientUnits="userSpaceOnUse" gradientTransform="translate(15.896 2.14) rotate(19.8409) scale(4.68118 3.80332)">
<stop offset="0.15" stop-color="#FED235"/>
<stop offset="1" stop-color="#FED235" stop-opacity="0"/>
</radialGradient>
<radialGradient id="paint12_radial_55_1611" cx="0" cy="0" r="1" gradientUnits="userSpaceOnUse" gradientTransform="translate(19.352 5.604) rotate(-67.416) scale(1.91226 1.51137)">
<stop offset="0.576" stop-color="#BD952C"/>
<stop offset="1" stop-color="#BD952C" stop-opacity="0"/>
</radialGradient>
<radialGradient id="paint13_radial_55_1611" cx="0" cy="0" r="1" gradientUnits="userSpaceOnUse" gradientTransform="translate(11.516 3.557) rotate(32.1787) scale(6.57202 7.92358)">
<stop stop-color="#FFFC58"/>
<stop offset="1" stop-color="#FFFC58" stop-opacity="0"/>
</radialGradient>
<linearGradient id="paint14_linear_55_1611" x1="20.547" y1="6.05698" x2="17.768" y2="2.52598" gradientUnits="userSpaceOnUse">
<stop stop-color="#C19C31"/>
<stop offset="1" stop-color="#C19C31" stop-opacity="0"/>
</linearGradient>
</defs>
</svg>
